<svg xmlns="http://www.w3.org/2000/svg" width="42.377" height="40.599" viewBox="0 0 42.377 40.599">
  <g id="Group_50" data-name="Group 50" transform="translate(-796.274 -185.329)">
    <g id="Group_49" data-name="Group 49" transform="translate(796.274 185.329)">
      <g id="Group_48" data-name="Group 48" transform="translate(0 0)">
        <path id="Path_191" data-name="Path 191" d="M838.651,205.629c0,2.173-2.388,3.942-3.025,5.9-.66,2.032.21,4.862-1.021,6.553-1.243,1.708-4.212,1.75-5.92,2.993-1.691,1.231-2.641,4.048-4.673,4.708-1.96.637-4.377-1.063-6.549-1.063s-4.589,1.7-6.549,1.063c-2.032-.66-2.982-3.477-4.674-4.708-1.708-1.243-4.677-1.285-5.92-2.993-1.231-1.691-.361-4.521-1.021-6.553-.637-1.961-3.025-3.729-3.025-5.9s2.388-3.942,3.025-5.9c.66-2.032-.21-4.862,1.021-6.553,1.243-1.708,4.212-1.75,5.92-2.993,1.691-1.231,2.641-4.048,4.673-4.708,1.961-.637,4.377,1.063,6.549,1.063s4.589-1.7,6.549-1.063c2.032.66,2.982,3.477,4.674,4.708,1.708,1.243,4.677,1.285,5.92,2.993,1.231,1.691.361,4.521,1.021,6.553C836.263,201.687,838.651,203.456,838.651,205.629Z" transform="translate(-796.274 -185.329)" fill="#69b21b"/>
      </g>
      <path id="Path_192" data-name="Path 192" d="M849.262,249.8a8.216,8.216,0,0,1-2.031-.484,9.134,9.134,0,0,0-7.118,0,8.227,8.227,0,0,1-2.031.484.8.8,0,0,1-.237-.028c-.465-.151-1.093-1.01-1.647-1.768a11.345,11.345,0,0,0-2.373-2.606,11.47,11.47,0,0,0-3.239-1.472,5.422,5.422,0,0,1-2.167-1.007,5.443,5.443,0,0,1-.282-2.345,11.627,11.627,0,0,0-.4-3.555,11.164,11.164,0,0,0-1.725-3.025,5.463,5.463,0,0,1-1.185-2.155,5.456,5.456,0,0,1,1.184-2.154,11.186,11.186,0,0,0,1.726-3.026,11.626,11.626,0,0,0,.406-3.555,5.44,5.44,0,0,1,.282-2.345,5.417,5.417,0,0,1,2.166-1.006,11.471,11.471,0,0,0,3.24-1.472,11.345,11.345,0,0,0,2.373-2.606c.554-.758,1.181-1.617,1.646-1.768a.807.807,0,0,1,.237-.028,8.222,8.222,0,0,1,2.031.484,9.133,9.133,0,0,0,7.118,0,8.22,8.22,0,0,1,2.031-.484.842.842,0,0,1,.235.028c.467.151,1.094,1.011,1.648,1.769a11.352,11.352,0,0,0,2.373,2.606,11.469,11.469,0,0,0,3.239,1.472,5.42,5.42,0,0,1,2.167,1.007,5.439,5.439,0,0,1,.282,2.344,11.623,11.623,0,0,0,.405,3.555,11.168,11.168,0,0,0,1.725,3.025,5.464,5.464,0,0,1,1.185,2.156,5.462,5.462,0,0,1-1.185,2.155,11.153,11.153,0,0,0-1.725,3.024,11.618,11.618,0,0,0-.405,3.555,5.441,5.441,0,0,1-.283,2.345,5.412,5.412,0,0,1-2.163,1.005,11.475,11.475,0,0,0-3.242,1.473A11.346,11.346,0,0,0,851.145,248c-.554.758-1.181,1.617-1.646,1.768A.8.8,0,0,1,849.262,249.8Zm-5.59-1.518a12,12,0,0,1,3.653.737,8.121,8.121,0,0,0,1.937.47.51.51,0,0,0,.141-.013c.369-.12,1.018-1.007,1.491-1.655a11.585,11.585,0,0,1,2.441-2.675,11.7,11.7,0,0,1,3.324-1.516,6.123,6.123,0,0,0,2.013-.894,6.325,6.325,0,0,0,.223-2.161,11.865,11.865,0,0,1,.42-3.651,11.4,11.4,0,0,1,1.769-3.111,5.794,5.794,0,0,0,1.126-1.973,5.787,5.787,0,0,0-1.125-1.971,11.415,11.415,0,0,1-1.771-3.113,11.863,11.863,0,0,1-.42-3.648,6.313,6.313,0,0,0-.223-2.163,6.246,6.246,0,0,0-2.012-.894,9.086,9.086,0,0,1-5.766-4.191c-.473-.648-1.122-1.536-1.491-1.656a.558.558,0,0,0-.141-.013,8.121,8.121,0,0,0-1.937.47,9.43,9.43,0,0,1-7.307,0,8.118,8.118,0,0,0-1.937-.47.523.523,0,0,0-.142.013c-.368.12-1.016,1.007-1.49,1.655a11.583,11.583,0,0,1-2.441,2.674,11.709,11.709,0,0,1-3.325,1.516,6.246,6.246,0,0,0-2.012.894,6.31,6.31,0,0,0-.223,2.163,11.86,11.86,0,0,1-.421,3.65,11.416,11.416,0,0,1-1.769,3.11,5.793,5.793,0,0,0-1.126,1.973,5.792,5.792,0,0,0,1.126,1.973,11.407,11.407,0,0,1,1.769,3.111,11.866,11.866,0,0,1,.42,3.648,6.312,6.312,0,0,0,.223,2.164,6.248,6.248,0,0,0,2.012.894,11.708,11.708,0,0,1,3.325,1.516,11.586,11.586,0,0,1,2.44,2.673c.475.65,1.123,1.537,1.492,1.657a.547.547,0,0,0,.141.013,8.125,8.125,0,0,0,1.937-.47A11.994,11.994,0,0,1,843.671,248.281Z" transform="translate(-822.483 -211.539)" fill="#fff"/>
    </g>
  </g>
</svg>
