<?xml version="1.0" encoding="utf-8"?>
<!-- Generator: Adobe Illustrator 24.0.1, SVG Export Plug-In . SVG Version: 6.00 Build 0)  -->
<svg version="1.1" id="Capa_1" xmlns="http://www.w3.org/2000/svg" xmlns:xlink="http://www.w3.org/1999/xlink" x="0px" y="0px"
	 viewBox="0 0 512 512" style="enable-background:new 0 0 512 512;" xml:space="preserve">
<style type="text/css">
	.st0{fill:#FFFFFF;}
</style>
<g>
	<g>
		<g>
			<path d="M337,46H92.2c-30.7,0-55.6,24.9-55.6,55.5v244.1c0,30.6,25,55.5,55.6,55.5H337c30.7,0,55.6-24.9,55.6-55.5V101.5
				C392.6,70.9,367.7,46,337,46z M364.8,345.5c0,15.3-12.5,27.7-27.8,27.7H92.2c-15.3,0-27.8-12.4-27.8-27.7V101.5
				c0-15.3,12.5-27.7,27.8-27.7H337c15.3,0,27.8,12.4,27.8,27.7V345.5z"/>
		</g>
	</g>
	<g>
		<g>
			<path d="M409,106H164.2c-30.7,0-55.6,24.9-55.6,55.5v244.1c0,30.6,25,55.5,55.6,55.5H409c30.7,0,55.6-24.9,55.6-55.5V161.5
				C464.6,130.9,439.7,106,409,106z M436.8,405.5c0,15.3-12.5,27.7-27.8,27.7H164.2c-15.3,0-27.8-12.4-27.8-27.7V161.5
				c0-15.3,12.5-27.7,27.8-27.7H409c15.3,0,27.8,12.4,27.8,27.7V405.5z"/>
		</g>
	</g>
	<path class="st0" d="M384.7,401H164.2c-15.3,0-27.8-12.4-27.8-27.8V161.5c0-15.3,12.4-27.8,27.8-27.8h220.5
		c15.3,0,27.8,12.4,27.8,27.8v211.7C412.5,388.6,400,401,384.7,401z"/>
	<rect x="136.4" y="308" class="st0" width="292.1" height="97.5"/>
	<rect x="358.3" y="133.7" class="st0" width="50.7" height="16.3"/>
</g>
</svg>
