<?xml version="1.0" encoding="utf-8"?>
<!-- Generator: Adobe Illustrator 24.0.1, SVG Export Plug-In . SVG Version: 6.00 Build 0)  -->
<svg version="1.1" id="Capa_1" xmlns="http://www.w3.org/2000/svg" xmlns:xlink="http://www.w3.org/1999/xlink" x="0px" y="0px" width='80px' height='80px'
	 viewBox="0 0 30 30" style="enable-background:new 0 0 30 30;" xml:space="preserve">
<g>
	<g>
		<path class="st0" d="M10.6,22.5c-1.8,0-3.1,1.4-3.1,3.1c0,1.8,1.4,3.1,3.1,3.1c1.8,0,3.1-1.4,3.1-3.1
			C13.8,23.9,12.4,22.5,10.6,22.5z M10.6,27.5c-1,0-1.9-0.9-1.9-1.9c0-1,0.9-1.9,1.9-1.9s1.9,0.9,1.9,1.9
			C12.5,26.6,11.6,27.5,10.6,27.5z"/>
	</g>
</g>
<g>
	<g>
		<path class="st0" d="M23.1,22.5c-1.8,0-3.1,1.4-3.1,3.1c0,1.8,1.4,3.1,3.1,3.1c1.8,0,3.1-1.4,3.1-3.1
			C26.3,23.9,24.9,22.5,23.1,22.5z M23.1,27.5c-1,0-1.9-0.9-1.9-1.9c0-1,0.9-1.9,1.9-1.9c1,0,1.9,0.9,1.9,1.9
			C25,26.6,24.1,27.5,23.1,27.5z"/>
	</g>
</g>
<path class="st0" d="M6.2,23.1L6.2,23.1c0.2,0.2,0.5,0.2,0.7,0.1L29.8,3.5C30,3.3,30,3,29.8,2.8l0,0c-0.2-0.2-0.5-0.2-0.7-0.1
	L6.3,22.3C6.1,22.5,6,22.8,6.2,23.1z"/>
<g>
	<path class="st0" d="M8.4,20.2l1-0.9c-0.3-0.2-0.5-0.5-0.7-0.7l1.8-0.2l1.8-1.6l-4.2,0.6L5.9,6.1h19L26.2,5H5.6L5,1.8
		c0-0.3-0.4-0.5-0.6-0.5H0.6C0.3,1.2,0,1.5,0,1.9s0.3,0.6,0.6,0.6h3.3l3,15.3C7.1,18.8,7.6,19.6,8.4,20.2z"/>
	<path class="st0" d="M29.4,5h-0.9l-1.3,1.1h1.4L26.4,15l-11.3,1.5L13.3,18L27,16.1c0.3,0,0.5-0.3,0.5-0.5l2.5-10c0,0,0-0.3-0.1-0.4
		S29.6,5,29.4,5z"/>
	<path class="st0" d="M25.5,20H11.3c-0.1,0-0.2,0-0.3,0l-1.2,1c0.4,0.1,0.9,0.2,1.3,0.2h14.4c0.4,0,0.6-0.3,0.6-0.6
		C26.1,20.3,25.9,20,25.5,20z"/>
</g>
</svg>
