<?xml version="1.0" encoding="utf-8"?>
<!-- Generator: Adobe Illustrator 24.0.1, SVG Export Plug-In . SVG Version: 6.00 Build 0)  -->
<svg version="1.1" xmlns="http://www.w3.org/2000/svg" xmlns:xlink="http://www.w3.org/1999/xlink" x="0px" y="0px" 
	 viewBox="0 0 512 512" style="enable-background:new 0 0 512 512;" xml:space="preserve">
<g id="Capa_1">
	<g>
		<g>
			<path d="M439.6,87.5c-44.7-45.7-104.4-70.8-167.8-70.6c-62.2,0.2-121.6,25.3-165.6,70C68,125.7,44.6,175.5,38.7,229.2l-13.6-12.6
				c-1.2-1.1-3.1-1-4.2,0.2l-16.1,18c-1.1,1.2-1,3.2,0.2,4.3l41.2,37.9c1.3,1.2,3.2,1.4,4.7,0.5l49.7-29.9c1.4-0.9,1.9-2.7,1-4.2
				l-12.2-20.9c-0.8-1.4-2.7-1.9-4.1-1.1l-16.7,10c12-103.8,99.2-184.5,204.5-184.2c112.6,0.3,204.6,93.7,204.9,208.2
				c0.3,115.3-92,209.2-205.4,209.2c-44.4,0-86.5-14.1-122-40.8c-1.7-1.3-4.2-0.9-5.5,0.8l-13.4,17.7c-1.4,1.8-1,4.4,0.8,5.7
				c40.7,30.7,89.1,47,140.1,47c62.9,0,122-24.9,166.4-70S508,319.9,508,256C508,192.8,483.5,132.4,439.6,87.5z"/>
		</g>
	</g>
	<path d="M270.7,233.1c-17.7,0-32.2-12.3-32.2-27.5c0-15.2,14.4-27.5,32.2-27.5s32.2,12.3,32.2,27.5c0,6.1,5.8,11,12.9,11
		s12.9-4.9,12.9-11c0-23.5-19.3-43.3-45-48.3V145c0-6.1-5.8-11-12.9-11c-7.1,0-12.9,4.9-12.9,11v12.3c-25.8,5-45,24.8-45,48.3
		c0,27.3,26,49.6,57.9,49.6c17.7,0,32.2,12.3,32.2,27.5s-14.4,27.5-32.2,27.5s-32.2-12.3-32.2-27.5c0-6.1-5.8-11-12.9-11
		s-12.9,4.9-12.9,11c0,23.5,19.3,43.3,45,48.3v12.3c0,6.1,5.8,11,12.9,11c7.1,0,12.9-4.9,12.9-11V331c25.8-5,45-24.8,45-48.3
		C328.6,255.4,302.6,233.1,270.7,233.1z"/>
</g>
<g id="Layer_2">
</g>
</svg>
