<?xml version="1.0" encoding="utf-8"?>
<!-- Generator: Adobe Illustrator 24.0.1, SVG Export Plug-In . SVG Version: 6.00 Build 0)  -->
<svg version="1.1" id="Capa_1" xmlns="http://www.w3.org/2000/svg" xmlns:xlink="http://www.w3.org/1999/xlink" x="0px" y="0px" width='30px' height='30px'
	 viewBox="0 0 219.3 219.3" style="enable-background:new 0 0 219.3 219.3;" xml:space="preserve">
<style type="text/css">
	.st0{fill:#FFFFFF;}
</style>
<path class="st0" d="M185.7,30.7c-0.1-0.1-0.2-0.2-0.3-0.3c-0.2-0.2-0.4-0.4-0.6-0.6C165.2,11.4,138.7,0,109.7,0
	C49.2,0,0,49.2,0,109.7c0,29.1,11.4,55.5,29.9,75.2c0.2,0.2,0.4,0.4,0.6,0.6c0.1,0.1,0.2,0.2,0.3,0.3c20,20.7,47.9,33.6,78.9,33.6
	c60.5,0,109.7-49.2,109.7-109.7C219.3,78.7,206.4,50.7,185.7,30.7z M109.7,15c22.5,0,43.3,7.9,59.5,21.1L36.1,169.2
	c-13.2-16.3-21.1-37-21.1-59.5C15,57.5,57.5,15,109.7,15z M109.7,204.3c-24.3,0-46.4-9.2-63.2-24.3L180.1,46.5
	c15.1,16.8,24.3,38.9,24.3,63.2C204.3,161.9,161.9,204.3,109.7,204.3z"/>
</svg>
