<?xml version="1.0" encoding="utf-8"?>
<!-- Generator: Adobe Illustrator 24.1.1, SVG Export Plug-In . SVG Version: 6.00 Build 0)  -->
<svg version="1.1" id="Capa_1" xmlns="http://www.w3.org/2000/svg" xmlns:xlink="http://www.w3.org/1999/xlink" x="0px" y="0px" width="45px" height="45px"
	 viewBox="0 0 512 512" style="enable-background:new 0 0 512 512;" xml:space="preserve">
<style type="text/css">
	.st0{fill:#FFFFFF;}
</style>
<path class="st0" d="M456.9,211.6H68.1c-1.9,0-3.4-1.5-3.4-3.4v-8.5c0-1.9,1.5-3.4,3.4-3.4h388.8c1.9,0,3.4,1.5,3.4,3.4v8.5
	C460.2,210.1,458.7,211.6,456.9,211.6z"/>
<path class="st0" d="M373.8,204.2L154.2,212c30.2,16.3,57.3,170.9,63.5,200.5c0.6,2.8,3.1,4.8,6,4.8h254.9c2.8,0,5-2.3,4.8-5.1
	C478.5,307.5,373.8,204.2,373.8,204.2z M232.6,401.9c-8.2,1.8-31.7-161.3-57.8-189.7l186-0.6c0,0,99.5,90.4,104,187.9L232.6,401.9z"
	/>
<path class="st0" d="M305.9,234.7c-33.9-0.6-61.7,15.9-62.1,36.9c-0.4,21,26.8,38.5,60.7,39.1c33.9,0.6,61.7-15.9,62.1-36.9
	C367,252.8,339.9,235.3,305.9,234.7z M304.7,302.7c-26.8-0.5-48.2-14.3-47.9-30.9c0.3-16.6,22.2-29.6,49-29.1
	c26.8,0.5,48.2,14.3,47.9,30.9C353.4,290.1,331.5,303.2,304.7,302.7z"/>
<path class="st0" d="M481,156.8H43.5c-5.1,0-9.2,4.1-9.2,9.2v76.3c0,5.1,4.1,9.2,9.2,9.2h134.3c-2.1-5-4.8-10.3-7.7-15.3H54.4
	c-2.8,0-5-2.2-5-5v-54.7c0-2.8,2.2-5,5-5H470c2.8,0,5,2.2,5,5v54.7c0,2.8-2.2,5-5,5h-68.2l12.2,15.3H481c5.1,0,9.2-4.1,9.2-9.2
	v-76.3C490.3,161,486.1,156.8,481,156.8z"/>
<path class="st0" d="M436.7,401.9c12.6,27.4,2.3,48,2.3,48l-234.7-34l-0.2-45.5c0-5.5-0.3-10.9-0.8-16.4l-7.8-81.7
	c-0.5-8-21.3-55.8-21.3-55.8l150.2-8.2V207L154,211c0,0,23.7,53.1,24.3,61.8l8.3,71.8c0.9,7.5,1.3,15.1,1.3,22.7l0,56.7
	c0.2,3.1,2.5,5.6,5.6,6.1l252.3,35.2c3.3,0.5,6.4-1.5,7.5-4.6c3.9-10.6,5.6-33.8-3.2-58.9H436.7z"/>
<path class="st0" d="M445.2,70.2L445.2,70.2c4.2,0,7.7-3.4,7.7-7.7V43.1c0-4.2-3.4-7.7-7.7-7.7h0c-4.2,0-7.7,3.4-7.7,7.7v19.4
	C437.5,66.7,441,70.2,445.2,70.2z"/>
<path class="st0" d="M490.3,81.4L490.3,81.4c0-4.2-3.4-7.7-7.7-7.7h-19.4c-4.2,0-7.7,3.4-7.7,7.7v0c0,4.2,3.4,7.7,7.7,7.7h19.4
	C486.8,89,490.3,85.6,490.3,81.4z"/>
<path class="st0" d="M433.5,81.4L433.5,81.4c0-4.2-3.4-7.7-7.7-7.7h-19.4c-4.2,0-7.7,3.4-7.7,7.7v0c0,4.2,3.4,7.7,7.7,7.7h19.4
	C430.1,89,433.5,85.6,433.5,81.4z"/>
<path class="st0" d="M445.2,125.8L445.2,125.8c4.2,0,7.7-3.4,7.7-7.7V98.7c0-4.2-3.4-7.7-7.7-7.7h0c-4.2,0-7.7,3.4-7.7,7.7v19.4
	C437.5,122.4,441,125.8,445.2,125.8z"/>
<path class="st0" d="M81.3,383.6L81.3,383.6c4.2,0,7.7-3.4,7.7-7.7v-19.4c0-4.2-3.4-7.7-7.7-7.7h0c-4.2,0-7.7,3.4-7.7,7.7V376
	C73.6,380.2,77.1,383.6,81.3,383.6z"/>
<path class="st0" d="M126.4,394.8L126.4,394.8c0-4.2-3.4-7.7-7.7-7.7H99.3c-4.2,0-7.7,3.4-7.7,7.7v0c0,4.2,3.4,7.7,7.7,7.7h19.4
	C122.9,402.5,126.4,399,126.4,394.8z"/>
<path class="st0" d="M69.6,394.8L69.6,394.8c0-4.2-3.4-7.7-7.7-7.7H42.6c-4.2,0-7.7,3.4-7.7,7.7v0c0,4.2,3.4,7.7,7.7,7.7H62
	C66.2,402.5,69.6,399,69.6,394.8z"/>
<path class="st0" d="M81.3,439.2L81.3,439.2c4.2,0,7.7-3.4,7.7-7.7v-19.4c0-4.2-3.4-7.7-7.7-7.7h0c-4.2,0-7.7,3.4-7.7,7.7v19.4
	C73.6,435.8,77.1,439.2,81.3,439.2z"/>
<path class="st0" d="M161.9,230.2c0,0,5,6.7,8.6,20.8c-0.7,0.2-1.1,0.3-1.1,0.3s4.1,20.7,4.5,26.9c0.3,18.6-2.9,43-13.9,73.4
	c-0.5,1.4,0.5,2.8,2,2.8h28.6h11.9C202.6,354.4,203.2,221.3,161.9,230.2z M197.3,347.1h-7.1h-18.8c5-13.6,7.5-25.1,8.4-34.8l0,0
	l0-0.4c0,0,0,0,0-0.1c0.5-5.3,0.5-10,0.2-14.1c0.1-7,0.2-15.5,0.2-23.3C197.5,284.5,197.3,347.1,197.3,347.1z"/>
</svg>
