<svg xmlns="http://www.w3.org/2000/svg" width="47.316" height="92.257" viewBox="0 0 47.316 92.257"><defs><style>.a{fill:#009b7f;fill-rule:evenodd;}</style></defs><path class="a" d="M296.347,231.622,265.64,249.351c-3.3,1.9-5.14,3.441-6.243,5.474-1.127,2.075-1.3,4.241-1.3,7.472v15.954c0,3.151.351,5.668,2.042,7.165,1.852,1.64,4.523,1.616,8.722-.809l29.055-16.775c5.8-3.347,7.5-8.164,7.5-14.582V224.86a13.483,13.483,0,0,0-6.722-11.757L267.922,195.34a6.757,6.757,0,0,0-6.772-.248,6.345,6.345,0,0,0-3.057,5.55v19.164c0,2.729.1,4.428.977,6.084s2.288,2.787,4.86,4.271l10.8,6.238a2.588,2.588,0,0,0,2.594-4.479l-10.8-6.238c-1.688-.975-2.547-1.586-2.874-2.2s-.369-1.756-.369-3.673v-9.664l28.467,16.435a2.588,2.588,0,1,0,2.594-4.479l-31.06-17.933v-3.212c0-1.266.841-1.83,2.046-1.134l30.766,17.762a8.088,8.088,0,0,1,4.127,7.153,7.884,7.884,0,0,1-3.873,6.888m-27.456,33c2.012-1.162,3.644-.473,3.644,1.539a7.559,7.559,0,0,1-3.644,5.748c-2.013,1.162-3.644.473-3.644-1.54A7.557,7.557,0,0,1,268.891,264.621Z" transform="translate(-258.094 -194.294)"/></svg>