<?xml version="1.0"?>
<svg xmlns="http://www.w3.org/2000/svg" width="35px" height="35px" viewBox="0 0 480 480"><g><path d="m480 0h-480v16h40v32c0 13.253906 10.746094 24 24 24h4.847656l-68.726562 398.640625c-.402344 2.324219.242187 4.707031 1.761718 6.511719 1.519532 1.804687 3.757813 2.847656 6.117188 2.847656h464c2.359375 0 4.597656-1.042969 6.117188-2.847656 1.519531-1.804688 2.164062-4.1875 1.761718-6.511719l-68.726562-398.640625h4.847656c13.253906 0 24-10.746094 24-24v-32h40zm-148 16 47.679688 345.929688c-20.644532 2.917968-37.539063 17.914062-42.878907 38.070312h-193.601562c-5.339844-20.152344-22.226563-35.148438-42.871094-38.070312l47.671875-345.929688zm-268 40c-4.417969 0-8-3.582031-8-8v-32h22.503906l-6.894531 40zm-46.503906 408 77.238281-448h37.121094l-48.503907 351.792969c-.300781 2.214843.335938 4.453125 1.757813 6.179687 1.425781 1.722656 3.507813 2.769532 5.738281 2.890625 20.832032 1.144531 37.152344 14.816407 37.152344 31.136719 0 4.417969 3.582031 8 8 8h208c4.417969 0 8-3.582031 8-8 0-16.320312 16.320312-29.992188 37.152344-31.136719 2.230468-.121093 4.3125-1.167969 5.738281-2.890625 1.421875-1.726562 2.058594-3.964844 1.757813-6.179687l-48.503907-351.792969h37.121094l77.238281 448zm406.503906-416c0 4.417969-3.582031 8-8 8h-7.609375l-6.894531-40h22.503906zm0 0" data-original="#000000" class="active-path" data-old_color="#000000" fill="#FFFFFF"/><path d="m240 248c52.9375 0 96-35.886719 96-80s-43.0625-80-96-80-96 35.886719-96 80 43.0625 80 96 80zm0-144c44.113281 0 80 28.710938 80 64s-35.886719 64-80 64-80-28.710938-80-64 35.886719-64 80-64zm0 0" data-original="#000000" class="active-path" data-old_color="#000000" fill="#FFFFFF"/><path d="m296 328h-25.0625l-7.015625-49.136719c-.566406-3.9375-3.941406-6.863281-7.921875-6.863281h-32c-3.980469 0-7.355469 2.925781-7.921875 6.863281l-7.015625 49.136719h-25.0625c-3.472656.003906-6.546875 2.25-7.609375 5.558594-1.058594 3.308594.136719 6.921875 2.960937 8.945312l56 40c2.78125 1.984375 6.515626 1.984375 9.296876 0l56-40c2.824218-2.023437 4.019531-5.636718 2.960937-8.945312-1.0625-3.308594-4.136719-5.554688-7.609375-5.558594zm-56 38.167969-31.03125-22.167969h7.03125c3.980469 0 7.355469-2.925781 7.921875-6.863281l7.015625-49.136719h18.125l7.015625 49.136719c.566406 3.9375 3.941406 6.863281 7.921875 6.863281h7.03125zm0 0" data-original="#000000" class="active-path" data-old_color="#000000" fill="#FFFFFF"/><path d="m424.160156 89.566406 15.6875-3.136718 32 159.996093-15.6875 3.140625zm0 0" data-original="#000000" class="active-path" data-old_color="#000000" fill="#FFFFFF"/><path d="m8.15625 246.433594 32-160 15.6875 3.136718-32 160zm0 0" data-original="#000000" class="active-path" data-old_color="#000000" fill="#FFFFFF"/></g> </svg>
