<?xml version="1.0" encoding="utf-8"?>
<!-- Generator: Adobe Illustrator 24.1.1, SVG Export Plug-In . SVG Version: 6.00 Build 0)  -->
<svg version="1.1" id="Layer_1" xmlns="http://www.w3.org/2000/svg" xmlns:xlink="http://www.w3.org/1999/xlink" x="0px" y="0px" width='25px' height='25px'
	 viewBox="0 0 512 512" style="enable-background:new 0 0 512 512;" xml:space="preserve">
<style type="text/css">
	.st0{fill:#19212E;}
</style>
<g transform="translate(-317 -298.5)">
	<g transform="translate(317.5 299)">
		<g>
			<path class="st0" d="M319.4,186.5H11c-6.1,0-11-4.9-11-11s4.9-11,11-11h308.4c6.1,0,11,4.9,11,11S325.5,186.5,319.4,186.5z"/>
		</g>
		<g>
			<path class="st0" d="M435.1,70.8H11c-6.1,0-11-4.9-11-11s4.9-11,11-11h424.1c6.1,0,11,4.9,11,11S441.2,70.8,435.1,70.8z"/>
		</g>
		<g>
			<path class="st0" d="M203.8,302.1H11c-6.1,0-11-4.9-11-11s4.9-11,11-11h192.8c6.1,0,11,4.9,11,11S209.9,302.1,203.8,302.1z"/>
		</g>
		<g>
			<path class="st0" d="M88.2,417.8H11c-6.1,0-11-4.9-11-11s4.9-11,11-11h77.1c6.1,0,11,4.9,11,11S94.2,417.8,88.2,417.8z"/>
		</g>
	</g>
	<g transform="translate(334.413 305.204)">
		<g>
			<path class="st0" d="M416.3,421c-24.3,0-50.5-5.8-71.4-13.3c-5.7-2.1-8.7-8.4-6.6-14.1c2.1-5.7,8.4-8.7,14.1-6.6
				c35.1,12.6,80.3,18.4,102.3,2.9c8.6-6.1,12.8-15.2,12.8-27.9c0-19.6-18.5-26.8-48.7-36.8c-30.9-10.3-69.3-23-69.3-65.4
				c0-18.1,8.1-32.5,23.3-41.5c34.1-20.1,93.3-7.9,115.5,4.3c5.3,2.9,7.3,9.6,4.3,14.9c-2.9,5.3-9.6,7.3-14.9,4.3
				c-18.1-9.9-68.6-19.5-93.7-4.6c-8.5,5-12.5,12.2-12.5,22.5c0,24.8,20.5,33.3,54.3,44.6c14.6,4.9,29.8,9.9,41.5,17.8
				c14.8,9.9,22.3,23.4,22.3,39.9c0,19.8-7.7,35.7-22.2,45.9C453.8,417.3,435.6,421,416.3,421z"/>
		</g>
		<g>
			<path class="st0" d="M424.4,456c-6.1,0-11-4.9-11-11V183.6c0-6.1,4.9-11,11-11s11,4.9,11,11V445C435.4,451,430.5,456,424.4,456z"
				/>
		</g>
	</g>
</g>
</svg>
