<svg xmlns="http://www.w3.org/2000/svg" width="28" height="28" viewBox="0 0 28 28"><defs><style>.a{fill:#edf2f8;}.b{fill:#d0332c;}.c{fill:#19212e;opacity:0.2;}.d{fill:#009b7f;}.e{fill:#6498e6;}.f{fill:#fff;}</style></defs><g transform="translate(-1 -1)"><path class="a" d="M25.2,16H5.612A.612.612,0,0,0,5,16.612v15.3a1.224,1.224,0,0,0,1.224,1.224H24.586a1.224,1.224,0,0,0,1.224-1.224v-15.3A.612.612,0,0,0,25.2,16Z" transform="translate(-1.552 -6.081)"/><path class="b" d="M21.621,1.338A.609.609,0,0,0,21.076,1H6.475a.609.609,0,0,0-.544.338S1,8.862,1,8.957c0,2.959,1.834,4.284,3.65,4.284a3.613,3.613,0,0,0,3.042-1.616,3.671,3.671,0,0,0,6.084,0,3.671,3.671,0,0,0,6.084,0A3.613,3.613,0,0,0,22.9,13.241c1.817,0,3.65-1.325,3.65-4.284C26.552,8.862,21.621,1.338,21.621,1.338Z"/><path class="c" d="M4.65,18.284a3.613,3.613,0,0,0,3.042-1.616,3.671,3.671,0,0,0,6.084,0,3.671,3.671,0,0,0,6.084,0A3.613,3.613,0,0,0,22.9,18.284c1.817,0,3.65-1.325,3.65-4.284H1C1,16.959,2.834,18.284,4.65,18.284Z" transform="translate(0 -5.13)"/><path class="d" d="M22.284,34H18.612a.612.612,0,0,0-.612.612v5.508h4.9V34.612A.612.612,0,0,0,22.284,34Z" transform="translate(-6.664 -13.064)"/><path class="e" d="M22.284,28.672H18.612A.612.612,0,0,1,18,28.06V25.612A.612.612,0,0,1,18.612,25h3.672a.612.612,0,0,1,.612.612V28.06A.612.612,0,0,1,22.284,28.672Z" transform="translate(-6.664 -9.467)"/><path class="b" d="M34.508,24A5.508,5.508,0,0,0,29,29.508c0,3.286,4.171,7.527,5.254,8.572a.365.365,0,0,0,.509,0c1.083-1.045,5.254-5.286,5.254-8.572A5.508,5.508,0,0,0,34.508,24Z" transform="translate(-11.017 -9.184)"/><circle class="f" cx="2" cy="2" r="2" transform="translate(21.607 18.174)"/></g></svg>