<?xml version="1.0" encoding="utf-8"?>
<!-- Generator: Adobe Illustrator 24.1.1, SVG Export Plug-In . SVG Version: 6.00 Build 0)  -->
<svg version="1.1" id="Capa_1" xmlns="http://www.w3.org/2000/svg" xmlns:xlink="http://www.w3.org/1999/xlink" x="0px" y="0px" width="25" height="25"
	 viewBox="0 0 512 512" style="enable-background:new 0 0 512 512;" xml:space="preserve">
<g>
	<g>
		<g>
			<g>
				<path d="M508.5,143.1c-0.4-11.7-3.7-23-9.7-33l-25.4-88.8c-1.1-3.7-4.5-6.3-8.4-6.3h-26.5v0c-0.1,0-0.3,0-0.4,0c0,0,0,0,0,0
					c0,0,0,0,0,0c-0.1,0-0.2,0-0.3,0c0,0,0,0-0.1,0h-16.6v0H147.8c-0.1,0-0.1,0-0.2,0H47.7c-3.8,0-7.2,2.6-8.2,6.3l-25,87.3
					c0,0.1-0.1,0.1-0.1,0.1c-20.2,32.6-10.2,75.4,22.4,95.7c0.6,0.4,1.3,0.8,1.9,1.2V467c0,14.4,11.7,26.1,26.1,26.1h382.4
					c14.4,0,26.1-11.7,26.1-26.1V205.4C495.5,192.5,508.9,168.7,508.5,143.1z M455.9,467c0,4.8-3.9,8.7-8.7,8.7H343
					c-0.1,0-0.2,0-0.2,0h-26.7c-0.1,0-0.2,0-0.2,0H195.2v0h-17.4v0h-113c-4.8,0-8.7-3.9-8.7-8.7V212.6c30.7,8.1,63-5.8,78.2-33.7
					c18.5,33.6,60.8,45.8,94.4,27.3c11.5-6.3,21-15.8,27.3-27.3c18.5,33.6,60.8,45.8,94.4,27.3c11.6-6.4,21.1-16,27.5-27.6
					c12.2,22.4,35.7,36.3,61.2,36.3h1.5c5.2-0.1,10.4-0.9,15.4-2.2V467z M460.8,192.5c-6.4,3.2-13.4,4.9-20.6,5
					c-28.8,0.7-52.7-22.1-53.3-50.9c0-0.4,0-0.8,0-1.2c0-4.8-3.9-8.7-8.7-8.7h-0.4c-4.8,0-8.7,3.9-8.7,8.7
					c0,28.8-23.3,52.2-52.2,52.2s-52.2-23.3-52.2-52.2c0-4.8-3.9-8.7-8.7-8.7c-4.8,0-8.7,3.9-8.7,8.7c0,28.8-23.3,52.2-52.2,52.2
					c-28.8,0-52.2-23.3-52.2-52.2c0-4.8-3.9-8.7-8.7-8.7c-4.8,0-8.7,3.9-8.7,8.7c0,28.8-23.4,52.1-52.2,52.1
					c-28.8,0-52.1-23.3-52.1-52.1c0-9.2,2.5-18.3,7.1-26.2c1-1,1.7-2.2,2.1-3.5l23.8-83.3h404.2l23.8,83.2c0.2,0.8,0.5,1.7,1,2.4
					c4.8,7.7,7.5,16.6,7.8,25.7C491.5,164.5,479.6,183.6,460.8,192.5z"/>
				<path d="M447.2,494.6H64.8c-15.2,0-27.6-12.4-27.6-27.6V206.4c-0.4-0.2-0.8-0.5-1.2-0.7C2.7,185-7.5,141.1,13.1,107.9l0.1-0.1
					L38,20.9c1.2-4.4,5.1-7.3,9.7-7.4l390.4,0c0,0,0.1,0,0.1,0l1.7-0.1v0.1h25c4.5,0,8.6,3,9.8,7.4l25.3,88.6
					c6,10.2,9.4,21.8,9.8,33.6l0,0c0.4,25.8-13,49.9-35.2,63.1V467C474.8,482.2,462.4,494.6,447.2,494.6z M15.5,109.7
					c-19.6,31.8-9.7,73.6,22,93.3c0.6,0.4,1.3,0.8,1.9,1.1l0.8,0.4V467c0,13.6,11,24.6,24.6,24.6h382.4c13.6,0,24.6-11,24.6-24.6
					V204.5l0.7-0.4c21.7-12.5,34.9-35.9,34.4-60.9c-0.4-11.4-3.7-22.5-9.5-32.3l-0.1-0.2l-25.5-89c-0.9-3.1-3.7-5.2-6.9-5.2h-26.7
					c-0.2,0-0.4,0-0.5,0h-290c0,0-0.1,0-0.2,0H47.7c-3.2,0-5.9,2.1-6.8,5.2L16,108.8v0.6L15.5,109.7z M15.3,109.9L15.3,109.9
					C15.3,109.9,15.3,109.9,15.3,109.9z M13.6,107.4C13.6,107.4,13.6,107.4,13.6,107.4L13.6,107.4z M342.7,477.2h-26.7
					c-0.1,0-0.2,0-0.2,0l-122.2,0v0l-128.9,0c-5.6,0-10.2-4.6-10.2-10.2V210.7l1.9,0.5c30.1,8,61.6-5.6,76.5-32.9l1.3-2.4l1.3,2.4
					c18.1,32.8,59.5,44.8,92.3,26.7c11.3-6.2,20.5-15.5,26.7-26.7l1.3-2.4l1.3,2.4c8.8,15.9,23.2,27.4,40.6,32.5
					c17.4,5,35.8,3,51.7-5.8c11.4-6.3,20.7-15.6,26.9-27l1.3-2.4l1.3,2.4c12,21.9,34.9,35.5,59.9,35.5c0,0,0,0,0,0h1.5
					c5-0.1,10.1-0.9,15-2.1l1.9-0.5V467c0,5.6-4.6,10.2-10.2,10.2H343C342.9,477.2,342.8,477.2,342.7,477.2z M196.7,474.2h119.2
					l0.2,0l26.7,0l0.2,0h104.3c4,0,7.2-3.2,7.2-7.2V214.6c-4.5,1.1-9.2,1.7-13.8,1.8l-1.5,0c0,0,0,0,0,0
					c-25.2,0-48.3-13.2-61.2-34.7c-6.5,10.9-15.7,19.8-26.8,25.9c-33.5,18.5-75.6,6.9-95.1-25.6c-6.4,10.7-15.6,19.6-26.6,25.6
					c-10.8,6-22.6,8.8-34.1,8.8c-24.2,0-47.7-12.4-61-34.4c-12.9,21.7-36,34.5-60.5,34.5c-5.4,0-10.8-0.6-16.2-1.9V467
					c0,4,3.2,7.2,7.2,7.2h111.5l1.5,0L196.7,474.2z M439,199c-29,0-52.9-23.3-53.6-52.4c0-0.4,0-0.8,0-1.3c0-4-3.2-7.2-7.2-7.2h-0.4
					c-4,0-7.2,3.2-7.2,7.2c0,29.6-24.1,53.7-53.7,53.7c-29.6,0-53.7-24.1-53.7-53.7c0-4-3.2-7.2-7.2-7.2s-7.2,3.2-7.2,7.2
					c0,29.6-24.1,53.7-53.7,53.7c-29.6,0-53.7-24.1-53.7-53.7c0-4-3.2-7.2-7.2-7.2s-7.2,3.2-7.2,7.2c0,14.3-5.6,27.8-15.7,37.9
					C101.3,193.4,87.8,199,73.5,199c0,0,0,0,0,0c-29.5,0-53.6-24.1-53.6-53.6c0-9.5,2.5-18.8,7.3-27l0.2-0.3
					c0.8-0.8,1.4-1.8,1.7-2.9l24.1-84.4h406.4l24.1,84.3c0.2,0.7,0.5,1.4,0.8,2c4.9,7.9,7.7,17,8,26.4c0.3,21.4-11.9,41.1-31.3,50.3
					c-6.6,3.2-13.9,5-21.2,5.2C439.8,199,439.4,199,439,199z M377.7,135.2h0.4c5.6,0,10.2,4.6,10.2,10.2c0,0.4,0,0.8,0,1.2
					C389,174.1,411.6,196,439,196c0.4,0,0.8,0,1.2,0c6.9-0.1,13.8-1.8,20-4.9l0,0c18.3-8.6,29.9-27.3,29.5-47.5
					c-0.3-8.8-2.9-17.4-7.6-24.9c-0.5-0.9-0.9-1.8-1.2-2.8l-23.5-82.1H55.5L32,116.1c-0.5,1.5-1.3,2.9-2.3,4
					c-4.5,7.7-6.8,16.4-6.8,25.3c0,27.9,22.7,50.6,50.6,50.6c0,0,0,0,0,0c13.5,0,26.2-5.3,35.8-14.8c9.6-9.6,14.9-22.3,14.9-35.8
					c0-5.6,4.6-10.2,10.2-10.2s10.2,4.6,10.2,10.2c0,27.9,22.7,50.7,50.7,50.7s50.7-22.7,50.7-50.7c0-5.6,4.6-10.2,10.2-10.2
					c5.6,0,10.2,4.6,10.2,10.2c0,27.9,22.7,50.7,50.7,50.7s50.7-22.7,50.7-50.7C367.5,139.8,372.1,135.2,377.7,135.2z"/>
			</g>
			<g>
				<path d="M447.2,495.1H64.8c-15.5,0-28.1-12.6-28.1-28.1V206.7c-0.3-0.2-0.7-0.4-1-0.6c-33.5-20.8-43.8-64.9-23-98.4l0,0
					l24.9-86.9c1.3-4.6,5.4-7.7,10.1-7.7l390.2,0l0.3,0c0,0,0,0,0.1,0l2.3-0.1V13H465c4.7,0,9,3.2,10.3,7.7l25.3,88.5
					c6,10.2,9.5,21.9,9.8,33.8l0,0c0.4,25.9-13,50.1-35.2,63.4V467C475.3,482.5,462.7,495.1,447.2,495.1z M15.9,110.1
					c-19.4,31.5-9.6,73,21.9,92.6c0.6,0.4,1.3,0.8,1.9,1.1l1,0.6V467c0,13.3,10.8,24.1,24.1,24.1h382.4c13.3,0,24.1-10.8,24.1-24.1
					V204.2l1-0.6c21.5-12.5,34.6-35.6,34.2-60.5c-0.4-11.3-3.6-22.4-9.4-32.1l-0.1-0.2l-0.1-0.2l-25.4-88.8C470.7,19,468,17,465,17
					h-26.7c-0.2,0-0.4,0-0.5,0h-290c0,0-0.1,0-0.2,0H47.7c-3,0-5.5,2-6.3,4.8l-24.9,87v0.8L15.9,110.1z M15.6,110.3L15.6,110.3
					C15.5,110.3,15.6,110.3,15.6,110.3z M13.4,107C13.3,107,13.3,107,13.4,107L13.4,107z M342.7,477.7h-26.7c-0.1,0-0.2,0-0.3,0
					l-122.6,0v0l-128.4,0c-5.9,0-10.7-4.8-10.7-10.7V210l2.5,0.7c29.9,7.9,61.1-5.5,76-32.7l1.7-3.2l1.8,3.2
					c18,32.6,59.1,44.5,91.7,26.5c11.2-6.2,20.4-15.3,26.5-26.5l1.7-3.2l1.7,3.2c18,32.6,59.1,44.5,91.7,26.5
					c11.3-6.2,20.5-15.5,26.7-26.8l1.7-3.2l1.8,3.2c11.9,21.7,34.7,35.2,59.4,35.2c0,0,0,0,0,0h1.5c5-0.1,10-0.8,14.9-2.1l2.5-0.7
					V467c0,5.9-4.8,10.7-10.7,10.7H343C342.9,477.7,342.8,477.7,342.7,477.7z M197.2,473.7h118.7l0.2,0l26.6,0l0.2,0l104.3,0
					c3.7,0,6.7-3,6.7-6.7V215.3c-4.4,1-8.9,1.5-13.3,1.7l-1.5,0c0,0,0,0,0,0c-25.1,0-48.2-13-61.2-34.3
					c-6.5,10.6-15.6,19.3-26.5,25.4c-10.9,6-22.7,8.9-34.4,8.9c-24.1,0-47.6-12.2-61-34c-6.5,10.5-15.5,19.1-26.4,25.1
					c-10.9,6-22.7,8.9-34.4,8.9c-24.1,0-47.6-12.2-61-34c-13.1,21.4-36.1,34-60.5,34c-5.2,0-10.5-0.6-15.8-1.8V467
					c0,3.7,3,6.7,6.7,6.7h111l2,0L197.2,473.7z M438.9,199.5c-14,0-27.2-5.3-37.4-15c-10.5-10-16.4-23.4-16.7-37.9
					c0-0.4,0-0.8,0-1.3c0-3.7-3-6.7-6.7-6.7h-0.4c-3.7,0-6.7,3-6.7,6.7c0,29.9-24.3,54.1-54.1,54.1c-29.9,0-54.1-24.3-54.1-54.1
					c0-3.7-3-6.7-6.7-6.7c-3.7,0-6.7,3-6.7,6.7c0,29.9-24.3,54.1-54.1,54.1S141,175.2,141,145.4c0-3.7-3-6.7-6.7-6.7
					c-3.7,0-6.7,3-6.7,6.7c0,14.5-5.7,28.1-15.9,38.3c-10.2,10.2-23.8,15.8-38.3,15.8c0,0,0,0,0,0c-29.8,0-54.1-24.3-54.1-54.1
					c0-9.6,2.6-19,7.4-27.2l0.1-0.2l0.2-0.2c0.7-0.7,1.3-1.7,1.6-2.7l24.2-84.7H460l24.2,84.7c0.2,0.7,0.4,1.3,0.8,1.9
					c5,8,7.8,17.2,8.1,26.6c0.3,21.6-12,41.5-31.5,50.7c-6.6,3.3-14,5.1-21.4,5.2C439.8,199.5,439.4,199.5,438.9,199.5z
					 M377.7,134.7h0.4c5.9,0,10.7,4.8,10.7,10.7c0,0.4,0,0.8,0,1.2c0.3,13.4,5.8,25.9,15.5,35.1c9.7,9.3,22.4,14.2,35.8,13.9
					c6.8-0.1,13.6-1.8,19.7-4.8l0,0c18.1-8.6,29.6-27,29.3-47c-0.3-8.7-2.9-17.2-7.5-24.6c-0.6-0.9-1-1.9-1.2-3L457,34.4H55.9
					l-23.4,81.9c-0.5,1.6-1.3,3-2.4,4.1c-4.4,7.6-6.7,16.2-6.7,25c0,27.6,22.5,50.1,50.1,50.1c0,0,0,0,0,0c13.4,0,26-5.2,35.4-14.7
					c9.5-9.5,14.7-22.1,14.7-35.5c0-5.9,4.8-10.7,10.7-10.7c5.9,0,10.7,4.8,10.7,10.7c0,27.7,22.5,50.2,50.2,50.2
					s50.2-22.5,50.2-50.2c0-5.9,4.8-10.7,10.7-10.7c5.9,0,10.7,4.8,10.7,10.7c0,27.7,22.5,50.2,50.2,50.2
					c27.7,0,50.2-22.5,50.2-50.2C367,139.5,371.8,134.7,377.7,134.7z"/>
				<path d="M447.2,496.6H64.8c-16.3,0-29.6-13.3-29.6-29.6V207.5c-0.1-0.1-0.2-0.1-0.3-0.2C0.8,186.1-9.8,141.2,11.3,107l24.8-86.7
					c1.5-5.2,6.1-8.8,11.6-8.8l390.2,0l0.2,0l3.9-0.2v0.2h23c5.4,0,10.2,3.6,11.7,8.8l25.3,88.3c6.1,10.4,9.6,22.3,10,34.3
					c0.4,26.1-13,50.7-35.2,64.4V467C476.8,483.3,463.5,496.6,447.2,496.6z M14.1,108.2L14.1,108.2l-0.1,0.2
					c-20.4,32.8-10.3,76,22.5,96.4c0.3,0.2,0.7,0.4,1,0.6l0.7,0.4V467c0,14.6,11.9,26.6,26.6,26.6h382.4c14.6,0,26.6-11.9,26.6-26.6
					V205.6l0.7-0.4c21.7-13,34.9-36.8,34.5-62.1c-0.4-11.6-3.7-23.1-9.6-33.1l-0.2-0.4l-25.3-88.5c-1.1-3.9-4.8-6.7-8.8-6.7l-26.7,0
					l-0.1-1.5l-0.1,1.5l-0.3,0l-390.1,0c-4.1,0.1-7.6,2.7-8.7,6.6L14.1,108.2L14.1,108.2L14.1,108.2L14.1,108.2z M14.1,108.1
					L14.1,108.1L14.1,108.1z M447.2,492.6H64.8c-14.1,0-25.6-11.5-25.6-25.6V205.2l-0.2-0.1c-0.6-0.4-1.3-0.8-1.9-1.2
					c-32.2-20-42.2-62.4-22.4-94.6l0.1-0.2l0,0l0,0l0,0l0,0l0,0l0-0.1l0.2-0.2v-0.2l0.1-0.2l24.9-87c1-3.5,4.1-5.9,7.8-5.9l390.1,0
					c0.2,0,0.3,0,0.5,0l26.8,0c3.6,0,6.9,2.4,7.9,5.9l25.4,88.8l0,0.1c5.9,9.9,9.2,21.2,9.6,32.8c0.4,25.4-13,49.1-34.9,61.8
					l-0.2,0.1V467C472.8,481.1,461.3,492.6,447.2,492.6z M17,111.1c-18.7,30.8-9,71.2,21.6,90.2c0.6,0.4,1.2,0.7,1.8,1.1l1.7,1V467
					c0,12.5,10.1,22.6,22.6,22.6h382.4c12.5,0,22.6-10.1,22.6-22.6V203.3l1.7-1c21-12.2,33.9-34.8,33.5-59.2
					c-0.4-11-3.6-21.8-9.2-31.3l-0.2-0.4l-0.1-0.4L470,22.3c-0.6-2.2-2.7-3.8-5-3.8h-26.7c-0.2,0-0.4,0-0.6,0l-289.9,0
					c-0.1,0-0.1,0-0.2,0H47.7c-2.3,0-4.3,1.5-4.9,3.8L18,109.1v1.4L17,111.1z M342.7,479.2h-26.7c-0.1,0-0.2,0-0.4,0l-124,0v0
					l-126.9,0c-6.7,0-12.2-5.5-12.2-12.2V208.1l4.4,1.2c29.2,7.7,59.8-5.4,74.3-32l3.1-5.6l3.1,5.6c8.5,15.4,22.5,26.6,39.4,31.5
					c16.9,4.9,34.8,2.9,50.2-5.6c10.9-6,19.9-15,25.9-26l3.1-5.5l3.1,5.5c17.6,31.9,57.8,43.5,89.6,25.9c11-6.1,20.1-15.2,26.1-26.2
					l3.1-5.6l3.1,5.6c11.6,21.2,33.9,34.4,58.1,34.4h1.5c4.8-0.1,9.7-0.8,14.5-2.1l4.4-1.2V467c0,6.7-5.5,12.2-12.2,12.2H343
					C343,479.2,342.8,479.2,342.7,479.2z M194.7,476.2l121.1,0c0.2,0,0.2,0,0.3,0l131.1,0c5.1,0,9.2-4.1,9.2-9.2V212.1l-0.6,0.2
					c-5,1.3-10.1,2.1-15.2,2.2l-1.5,0c-25.3,0-48.6-13.8-60.8-36l-0.4-0.8l-0.4,0.8c-6.3,11.6-15.7,21.1-27.3,27.4
					c-33.3,18.4-75.4,6.2-93.7-27.1l-0.4-0.8l-0.4,0.8c-6.3,11.4-15.7,20.8-27.1,27.1c-16.1,8.9-34.7,10.9-52.5,5.8
					c-17.7-5.1-32.4-16.8-41.2-32.9l-0.4-0.8l-0.4,0.8c-12.2,22.4-35.5,35.7-60,35.7c-5.8,0-11.8-0.7-17.6-2.3l-0.6-0.2v255
					c0,5.1,4.1,9.2,9.2,9.2H194.7L194.7,476.2z M316.1,475.2l-0.3,0l-118.6,0l-19.4,0l-2,0h-111c-4.5,0-8.2-3.7-8.2-8.2V213.3
					l1.8,0.4c5.1,1.1,10.3,1.7,15.4,1.7c24.4,0,46.5-12.4,59.2-33.3l1.3-2.1l1.3,2.1c12.6,20.5,35.5,33.2,59.7,33.2
					c11.7,0,23.3-3,33.6-8.7c10.6-5.8,19.5-14.3,25.8-24.6l1.3-2.1l1.3,2.1c12.6,20.5,35.5,33.3,59.7,33.3c11.7,0,23.4-3,33.7-8.7
					c10.7-5.9,19.6-14.5,26-24.8l1.3-2.1l1.3,2.1c12.7,20.7,35.6,33.6,59.9,33.5l1.5,0c4.3-0.1,8.7-0.7,13-1.6l1.8-0.4V467
					c0,4.5-3.7,8.2-8.2,8.2L316.1,475.2z M197.2,472.2h118.7l0.3,0l131.1,0c2.9,0,5.2-2.3,5.2-5.2V217.1c-3.9,0.8-7.9,1.2-11.8,1.3
					l-1.6,0c-24.5,0-47.8-12.6-61.2-33c-6.5,9.9-15.4,18.1-25.8,23.9c-10.7,5.9-22.9,9.1-35.1,9.1c-24.4,0-47.6-12.5-61-32.7
					c-6.5,9.8-15.3,18-25.6,23.6c-10.7,5.9-22.9,9-35.1,9c-24.4,0-47.6-12.5-60.9-32.7c-13.4,20.5-35.9,32.7-60.5,32.7
					c-4.8,0-9.6-0.5-14.3-1.4v250c0,2.9,2.3,5.2,5.2,5.2h111l2,0L197.2,472.2L197.2,472.2z M438.9,201c-14.4,0-28-5.5-38.4-15.4
					c-10.8-10.3-16.9-24.1-17.2-39c0-0.4,0-0.9,0-1.3c0-2.9-2.3-5.2-5.2-5.2h-0.4c-2.9,0-5.2,2.3-5.2,5.2c0,30.7-25,55.6-55.6,55.6
					s-55.6-25-55.6-55.6c0-2.9-2.3-5.2-5.2-5.2s-5.2,2.3-5.2,5.2c0,30.7-25,55.6-55.6,55.6c-30.7,0-55.6-25-55.6-55.6
					c0-2.9-2.3-5.2-5.2-5.2c-2.9,0-5.2,2.3-5.2,5.2c0,14.9-5.8,28.8-16.3,39.3C102.3,195.2,88.3,201,73.5,201
					c-30.7,0-55.6-25-55.6-55.6c0-9.8,2.6-19.5,7.6-28l0.4-0.5l0.2-0.2c0.6-0.6,1-1.3,1.2-2.1l24.5-85.8h409.4l24.5,85.7
					c0.2,0.6,0.4,1.1,0.6,1.5c5.1,8.2,8,17.7,8.3,27.4c0.3,22.2-12.4,42.6-32.4,52.1c-6.8,3.3-14.4,5.2-22,5.4
					C439.8,201,439.4,201,438.9,201z M377.7,137.2h0.4c4.5,0,8.2,3.7,8.2,8.2c0,0.4,0,0.8,0,1.2c0.3,14.1,6.1,27.2,16.3,36.9
					c10.1,9.7,23.6,14.9,37.6,14.6c7.2-0.2,14.4-1.9,20.8-5.1c19-9,31-28.4,30.7-49.3c-0.3-9.1-3-18.1-7.9-25.9
					c-0.4-0.7-0.8-1.5-1-2.3l-23.9-83.5H54l-23.9,83.6c-0.4,1.3-1.1,2.4-2,3.3l-0.1,0.1c-4.7,8-7.2,17.2-7.2,26.4
					c0,29,23.6,52.6,52.6,52.6c14.1,0,27.3-5.5,37.2-15.4c10-9.9,15.4-23.2,15.4-37.2c0-4.5,3.7-8.2,8.2-8.2c4.5,0,8.2,3.7,8.2,8.2
					c0,29,23.6,52.6,52.6,52.6c29,0,52.6-23.6,52.6-52.6c0-4.5,3.7-8.2,8.2-8.2s8.2,3.7,8.2,8.2c0,29,23.6,52.6,52.6,52.6
					s52.6-23.6,52.6-52.6C369.5,140.9,373.2,137.2,377.7,137.2z M438.9,197.1c-13.3,0-25.9-5-35.6-14.3c-10-9.5-15.7-22.4-16-36.2
					c0-0.4,0-0.8,0-1.2c0-5.1-4.1-9.2-9.2-9.2h-0.4c-5.1,0-9.2,4.1-9.2,9.2c0,28.5-23.2,51.7-51.7,51.7s-51.7-23.2-51.7-51.7
					c0-5.1-4.1-9.2-9.2-9.2c-5.1,0-9.2,4.1-9.2,9.2c0,28.5-23.2,51.7-51.7,51.7s-51.7-23.2-51.7-51.7c0-5.1-4.1-9.2-9.2-9.2
					s-9.2,4.1-9.2,9.2c0,13.8-5.4,26.8-15.2,36.5c-9.8,9.7-22.7,15.1-36.5,15.1c-28.5,0-51.6-23.2-51.7-51.6c0-9,2.4-17.9,6.9-25.7
					l0.2-0.3c0.9-1,1.6-2.2,2.1-3.6l23.7-82.9h403.4l23.7,82.8c0.2,0.9,0.6,1.8,1.1,2.6c4.8,7.6,7.4,16.4,7.7,25.4
					c0.3,20.6-11.5,39.6-30.1,48.4c-6.3,3.1-13.4,4.8-20.4,5C439.8,197.1,439.3,197.1,438.9,197.1z M377.7,133.2h0.4
					c6.7,0,12.2,5.5,12.2,12.2c0,0.4,0,0.8,0,1.1c0.3,13,5.6,25.1,15,34.1c9.4,9,21.8,13.8,34.7,13.5c6.6-0.1,13.2-1.7,19.1-4.7
					c17.6-8.3,28.8-26.3,28.5-45.7c-0.3-8.4-2.8-16.7-7.3-23.9c-0.7-1.1-1.1-2.2-1.4-3.4l-23.1-80.6H57l-23.1,80.8
					c-0.5,1.7-1.4,3.3-2.6,4.6c-4.2,7.3-6.5,15.6-6.5,24.1c0,26.8,21.8,48.6,48.6,48.6c13,0,25.2-5.1,34.4-14.2
					c9.2-9.2,14.3-21.4,14.3-34.4c0-6.7,5.5-12.2,12.2-12.2s12.2,5.5,12.2,12.2c0,26.8,21.8,48.7,48.7,48.7s48.7-21.8,48.7-48.7
					c0-6.7,5.5-12.2,12.2-12.2c6.7,0,12.2,5.5,12.2,12.2c0,26.8,21.8,48.7,48.7,48.7s48.7-21.8,48.7-48.7
					C365.5,138.7,371,133.2,377.7,133.2z"/>
			</g>
		</g>
	</g>
</g>
</svg>
