<?xml version="1.0" encoding="utf-8"?>
<!-- Generator: Adobe Illustrator 24.0.1, SVG Export Plug-In . SVG Version: 6.00 Build 0)  -->
<svg version="1.1"
	 id="svg2" xmlns:cc="http://creativecommons.org/ns#" xmlns:dc="http://purl.org/dc/elements/1.1/" xmlns:rdf="http://www.w3.org/1999/02/22-rdf-syntax-ns#" xmlns:svg="http://www.w3.org/2000/svg"
	 xmlns="http://www.w3.org/2000/svg" xmlns:xlink="http://www.w3.org/1999/xlink" x="0px" y="0px" width='25px' height='25px' viewBox="0 0 32.7 26.3"
	 style="enable-background:new 0 0 32.7 26.3;" xml:space="preserve">
<style type="text/css">
	.st0{clip-path:url(#SVGID_2_);}
	.st1{fill:#1CEAE4;}
</style>
<g id="g10" transform="matrix(1.3333333,0,0,-1.3333333,0,26.266667)">
	<g id="g12">
		<g>
			<g>
				<defs>
					<rect id="SVGID_1_" x="-9.5" y="-7.7" width="43.6" height="35.1"/>
				</defs>
				<clipPath id="SVGID_2_">
					<use xlink:href="#SVGID_1_"  style="overflow:visible;"/>
				</clipPath>
				<g id="g14" class="st0">
					<g id="g20" transform="translate(0.5,8.1004)">
						<g id="path22">
							<path class="st1" d="M14.7-0.5H0c-0.3,0-0.5,0.2-0.5,0.5S-0.3,0.5,0,0.5h14.7c0.3,0,0.5-0.2,0.5-0.5S15-0.5,14.7-0.5z"/>
						</g>
					</g>
					<g id="g24" transform="translate(0.5,2.6004)">
						<g id="path26">
							<path class="st1" d="M20.2-0.5H0c-0.3,0-0.5,0.2-0.5,0.5S-0.3,0.5,0,0.5h20.2c0.3,0,0.5-0.2,0.5-0.5S20.5-0.5,20.2-0.5z"/>
						</g>
					</g>
					<g id="g28" transform="translate(0.5,13.5999)">
						<g id="path30">
							<path class="st1" d="M9.2-0.5H0c-0.3,0-0.5,0.2-0.5,0.5S-0.3,0.5,0,0.5h9.2c0.3,0,0.5-0.2,0.5-0.5S9.5-0.5,9.2-0.5z"/>
						</g>
					</g>
					<g id="g32" transform="translate(0.5,19.2)">
						<g id="path34">
							<path class="st1" d="M3.7-0.5H0c-0.3,0-0.5,0.2-0.5,0.5S-0.3,0.5,0,0.5h3.7C4,0.5,4.2,0.3,4.2,0S4-0.5,3.7-0.5z"/>
						</g>
					</g>
					<g id="g36" transform="translate(23.8135,16.8958)">
						<g id="path38">
							<path class="st1" d="M-3.1-9c-1.2,0-2.4,0.3-3.5,0.7C-6.8-8.3-7-8-6.9-7.7s0.4,0.4,0.6,0.3c1.8-0.6,4-0.9,5-0.2
								c0.4,0.3,0.6,0.7,0.6,1.3C-0.7-5.4-1.6-5-3-4.5C-4.5-4-6.3-3.4-6.3-1.4c0,0.9,0.4,1.5,1.1,2c1.6,1,4.3,0.4,5.5-0.1
								C0.5,0.3,0.6,0,0.4-0.2C0.3-0.5,0-0.6-0.2-0.4C-1.1,0-3.6,0.4-4.7-0.3c-0.4-0.2-0.6-0.6-0.6-1.1c0-1.2,1-1.6,2.6-2.2
								c1.4-0.5,3-1,3-2.7c0-0.9-0.4-1.7-1-2.1C-1.3-8.9-2.2-9-3.1-9z"/>
						</g>
					</g>
					<g id="g40" transform="translate(21.0127,19.1961)">
						<g id="path42">
							<path class="st1" d="M0-13c-0.3,0-0.5,0.2-0.5,0.5V0c0,0.3,0.2,0.5,0.5,0.5S0.5,0.3,0.5,0v-12.5C0.5-12.8,0.3-13,0-13z"/>
						</g>
					</g>
				</g>
			</g>
		</g>
	</g>
</g>
</svg>
