<?xml version="1.0" encoding="utf-8"?>
<!-- Generator: Adobe Illustrator 24.0.1, SVG Export Plug-In . SVG Version: 6.00 Build 0)  -->
<svg version="1.1" id="Outline" xmlns="http://www.w3.org/2000/svg" xmlns:xlink="http://www.w3.org/1999/xlink" x="0px" y="0px"
	 viewBox="0 0 512 512" style="enable-background:new 0 0 512 512;" xml:space="preserve">
<path d="M104,496h304c22.1,0,40-17.9,40-40V120c0-2.1-0.8-4.2-2.3-5.7l-96-96c-1.5-1.5-3.5-2.3-5.7-2.3H104c-22.1,0-40,17.9-40,40
	v400C64,478.1,81.9,496,104,496z M352,43.3l68.7,68.7H376c-13.2,0-24-10.8-24-24V43.3z M80,56c0-13.2,10.8-24,24-24h232v56
	c0,22.1,17.9,40,40,40h56v328c0,13.2-10.8,24-24,24H104c-13.2,0-24-10.8-24-24V56z"/>
<path d="M144.6,243h218.2c6,0,10.9-3.6,10.9-8s-4.9-8-10.9-8H144.6c-6,0-10.9,3.6-10.9,8S138.6,243,144.6,243z"/>
<path d="M144.6,341h218.3c5,0,9.1-3.6,9.1-8s-4.1-8-9.1-8H144.6c-5,0-9.1,3.6-9.1,8S139.5,341,144.6,341z"/>
</svg>
