<svg xmlns="http://www.w3.org/2000/svg" width="28" height="27.5" viewBox="0 0 28 27.5"><defs><style>.a{fill:#d0332c;}.b,.e{fill:#19212e;}.b{opacity:0.2;}.c{fill:#fff;}.d{fill:#fcc43c;}.e{opacity:0.1;}</style></defs><g transform="translate(0 -0.996)"><path class="a" d="M33.669,13.785a25.471,25.471,0,0,0-16.977-2.514.6.6,0,0,0-.479.5l-1.537,10.4A8.98,8.98,0,0,0,32.442,24.8l1.539-10.4A.6.6,0,0,0,33.669,13.785Z" transform="translate(-5.987 -3.969)"/><path class="b" d="M37.581,24.986l1.539-10.4a.6.6,0,0,0-.312-.617,25.641,25.641,0,0,0-8.271-2.729L27.383,32.554A8.99,8.99,0,0,0,37.581,24.986Z" transform="translate(-11.127 -4.155)"/><path class="c" d="M24.369,23.247l-1.777-.263a.9.9,0,0,0-.263,1.777l1.776.263a.9.9,0,0,0,.263-1.777Z" transform="translate(-8.726 -8.843)"/><path class="c" d="M36.288,25.017l-1.777-.263a.9.9,0,1,0-.263,1.777l1.776.263a.9.9,0,1,0,.263-1.776Z" transform="translate(-13.549 -9.555)"/><path class="c" d="M26.707,35.957a3,3,0,0,0-3.4,2.523.6.6,0,0,0,.5.679l4.738.7a.6.6,0,0,0,.68-.5A3,3,0,0,0,26.707,35.957Z" transform="translate(-9.438 -14.061)"/><path class="d" d="M17.3,1.488A25.468,25.468,0,0,0,.319,4a.6.6,0,0,0-.312.617l1.539,10.4a8.98,8.98,0,0,0,17.767-2.629l-1.54-10.4a.6.6,0,0,0-.477-.5Z" transform="translate(0)"/><path class="e" d="M23.01,1.5a25.663,25.663,0,0,0-8.663-.222L17.5,22.591A8.988,8.988,0,0,0,25.025,12.4L23.486,2A.6.6,0,0,0,23.01,1.5Z" transform="translate(-5.826 -0.007)"/><path class="c" d="M11.113,15.7a.9.9,0,0,0-1.018-.757l-1.777.263a.9.9,0,1,0,.263,1.776l1.777-.263A.9.9,0,0,0,11.113,15.7Z" transform="translate(-3.056 -5.608)"/><path class="c" d="M21.961,13.186l-1.776.263a.9.9,0,1,0,.263,1.776l1.777-.263a.9.9,0,1,0-.263-1.777Z" transform="translate(-7.858 -4.901)"/><path class="c" d="M18.442,25.572l-4.738.7a.6.6,0,0,0-.5.68,2.994,2.994,0,1,0,5.924-.877.6.6,0,0,0-.682-.5Z" transform="translate(-5.344 -9.887)"/></g></svg>