<?xml version="1.0" encoding="utf-8"?>
<!-- Generator: Adobe Illustrator 24.0.1, SVG Export Plug-In . SVG Version: 6.00 Build 0)  -->
<svg version="1.1" id="Layer_1" xmlns="http://www.w3.org/2000/svg" xmlns:xlink="http://www.w3.org/1999/xlink" x="0px" y="0px" width='25px' height='25px'
	 viewBox="0 0 25 19" style="enable-background:new 0 0 25 19;" xml:space="preserve">
<style type="text/css">
	.st0{fill:#1CEAE4;}
</style>
<g transform="translate(-261 -298.5)">
	<g transform="translate(261.5 299)">
		<g>
			<path class="st0" d="M13.4,11.6H0c-0.3,0-0.5-0.2-0.5-0.5s0.2-0.5,0.5-0.5h13.4c0.3,0,0.5,0.2,0.5,0.5S13.7,11.6,13.4,11.6z"/>
		</g>
		<g>
			<path class="st0" d="M18.5,17.1H0c-0.3,0-0.5-0.2-0.5-0.5s0.2-0.5,0.5-0.5h18.5c0.3,0,0.5,0.2,0.5,0.5S18.8,17.1,18.5,17.1z"/>
		</g>
		<g>
			<path class="st0" d="M8.4,6H0c-0.3,0-0.5-0.2-0.5-0.5S-0.3,5,0,5h8.4c0.3,0,0.5,0.2,0.5,0.5S8.7,6,8.4,6z"/>
		</g>
		<g>
			<path class="st0" d="M3.4,0.5H0c-0.3,0-0.5-0.2-0.5-0.5S-0.3-0.5,0-0.5h3.4c0.3,0,0.5,0.2,0.5,0.5S3.7,0.5,3.4,0.5z"/>
		</g>
	</g>
	<g transform="translate(274.5 306)">
		<g>
			<path class="st0" d="M5.5,4.5c-3.3,0-6-2.7-6-6s2.7-6,6-6s6,2.7,6,6S8.8,4.5,5.5,4.5z M5.5-6.5c-2.8,0-5,2.2-5,5s2.2,5,5,5
				s5-2.2,5-5S8.3-6.5,5.5-6.5z"/>
		</g>
		<g>
			<path class="st0" d="M8.8-0.8H5.4C5.1-0.8,4.9-1,4.9-1.3v-3.4c0-0.3,0.2-0.5,0.5-0.5S5.9-5,5.9-4.7v2.9h2.9
				c0.3,0,0.5,0.2,0.5,0.5S9.1-0.8,8.8-0.8z"/>
		</g>
	</g>
</g>
</svg>
