<?xml version="1.0" encoding="utf-8"?>
<!-- Generator: Adobe Illustrator 24.1.1, SVG Export Plug-In . SVG Version: 6.00 Build 0)  -->
<svg version="1.1" id="Layer_1" xmlns="http://www.w3.org/2000/svg" xmlns:xlink="http://www.w3.org/1999/xlink" x="0px" y="0px" width='25px' height='25px'
	 viewBox="0 0 512 512" style="enable-background:new 0 0 512 512;" xml:space="preserve">
<style type="text/css">
	.st0{fill:#19212E;stroke:#1CEAE4}
</style>
<g transform="translate(-261 -298.5)">
	<g transform="translate(261.5 299)">
		<g>
			<path class="st0" d="M284.5,196.1H12c-6.1,0-11-4.9-11-11s4.9-11,11-11h272.4c6.1,0,11,4.9,11,11S290.5,196.1,284.5,196.1z"/>
		</g>
		<g>
			<path class="st0" d="M386.6,83.9H12C6,83.9,1,79,1,72.9s4.9-11,11-11h374.6c6.1,0,11,4.9,11,11S392.7,83.9,386.6,83.9z"/>
		</g>
		<g>
			<path class="st0" d="M182.3,308.2H12c-6.1,0-11-4.9-11-11s4.9-11,11-11h170.3c6.1,0,11,4.9,11,11S188.4,308.2,182.3,308.2z"/>
		</g>
		<g>
			<path class="st0" d="M80.2,420.3H12c-6.1,0-11-4.9-11-11s4.9-11,11-11h68.1c6.1,0,11,4.9,11,11S86.2,420.3,80.2,420.3z"/>
		</g>
	</g>
	<g transform="translate(274.5 306)">
		<g>
			<path class="st0" d="M374.4,442.1c-67.6,0-122.6-55-122.6-122.6c0-67.6,55-122.6,122.6-122.6S497,251.9,497,319.5
				C497,387.1,442,442.1,374.4,442.1z M374.4,218.9c-55.5,0-100.6,45.1-100.6,100.6c0,55.5,45.1,100.6,100.6,100.6
				S475,375,475,319.5C475,264,429.8,218.9,374.4,218.9z"/>
		</g>
		<g>
			<path class="st0" d="M440.1,332.3H372c-6.1,0-11-4.9-11-11v-68.1c0-6.1,4.9-11,11-11s11,4.9,11,11v57.1h57.1c6.1,0,11,4.9,11,11
				S446.2,332.3,440.1,332.3z"/>
		</g>
	</g>
</g>
</svg>
