<svg xmlns="http://www.w3.org/2000/svg" width="40" height="40" viewBox="0 0 40 40"><defs><style>.a{fill:#fcc43c;}.b{fill:#19212e;opacity:0.1;}.c{fill:#d0332c;}.d{fill:#fef8c9;}</style></defs><path class="a" d="M309,13.3h3.324V30.5a3.521,3.521,0,0,0,7.042,0V10.586a3.49,3.49,0,0,0,2.8-6.373l2.708-2.487L323.281,0l-6.262,5.751V30.5a1.174,1.174,0,0,1-2.348,0V10.953H309Zm0,0" transform="translate(-284.871 -0.001)"/><path class="a" d="M25.242,47.313H2.316v33.96H0v2.341H27.543V81.272h-2.3Zm0,0" transform="translate(0 -43.614)"/><path class="b" d="M0,482.027H27.543v2.343H0Zm0,0" transform="translate(0 -444.37)"/><path class="b" d="M190.011,81.272h-2.3V47.312H176.246v36.3h13.764Zm0,0" transform="translate(-162.482 -43.613)"/><path class="c" d="M134.553,328.871,132.4,330.1l.429.749a2.891,2.891,0,0,1-4.947.926l-1.8,1.507a5.239,5.239,0,0,0,9.03-1.876l.673-.384Zm0,0" transform="translate(-116.234 -303.181)"/><path class="c" d="M109.231,277.913a2.875,2.875,0,0,1,2.674,1.8l2.174-.883A5.233,5.233,0,0,0,104,280.73l-.548.588L105.27,283l1.691-1.814-.609-.566A2.886,2.886,0,0,1,109.231,277.913Zm0,0" transform="translate(-95.373 -254.045)"/><path class="d" d="M89.672,107.258v8.591h13.537v-8.591Zm0,0" transform="translate(-82.669 -98.88)"/><path class="b" d="M176.246,107.258h6.768v8.591h-6.768Zm0,0" transform="translate(-162.479 -98.88)"/></svg>