<svg xmlns="http://www.w3.org/2000/svg" width="58.495" height="41.991" viewBox="0 0 58.495 41.991"><defs><style>.a{fill:#6e6f6e;}</style></defs><path class="a" d="M276.364,411.738h.745c.235,0,.45-.009.644-.028a4.249,4.249,0,0,0,.539-.083,2.657,2.657,0,0,0,.431-.132,1.612,1.612,0,0,0,.326-.177,1.234,1.234,0,0,0,.235-.225,1.26,1.26,0,0,0,.17-.285,1.624,1.624,0,0,0,.106-.358,2.427,2.427,0,0,0,.036-.434,2.127,2.127,0,0,0-.034-.389,1.457,1.457,0,0,0-.1-.322,1.229,1.229,0,0,0-.158-.264,1.216,1.216,0,0,0-.221-.214,1.538,1.538,0,0,0-.3-.172,2.321,2.321,0,0,0-.388-.127,3.479,3.479,0,0,0-.48-.08c-.173-.017-.364-.026-.57-.026h-.981Zm-14.322.689-1.072-2.859-.1-.313-.077.241c-.338.985-.73,1.957-1.1,2.932Zm.5,1.414h-3.407l-.887,2.29a1.182,1.182,0,0,1-.159.291.9.9,0,0,1-.223.207.934.934,0,0,1-.269.118,1.187,1.187,0,0,1-.3.036.552.552,0,0,1-.1-.011.6.6,0,0,1-.1-.029.639.639,0,0,1-.149-.085.62.62,0,0,1-.12-.12.6.6,0,0,1-.089-.164.575.575,0,0,1-.019-.294.569.569,0,0,1,.032-.108l3.3-8.381a.936.936,0,0,1,.139-.245.755.755,0,0,1,.2-.174.8.8,0,0,1,.232-.1,1.061,1.061,0,0,1,.252-.029,1.088,1.088,0,0,1,.251.029.817.817,0,0,1,.232.1.751.751,0,0,1,.2.173.956.956,0,0,1,.139.246l3.286,8.381a.577.577,0,0,1,.041.205.536.536,0,0,1-.035.19.592.592,0,0,1-.1.169.658.658,0,0,1-.126.119.716.716,0,0,1-.153.084.8.8,0,0,1-.108.032.615.615,0,0,1-.11.012,1.187,1.187,0,0,1-.3-.036.922.922,0,0,1-.269-.118.9.9,0,0,1-.223-.207,1.162,1.162,0,0,1-.16-.291Zm-7.508-2a5.838,5.838,0,0,0-.054-.818,3.954,3.954,0,0,0-.161-.7,2.888,2.888,0,0,0-.263-.581,2.429,2.429,0,0,0-.832-.842,2.9,2.9,0,0,0-.575-.266,3.926,3.926,0,0,0-.691-.163,5.686,5.686,0,0,0-.807-.055h-1.342v6.948H251.4a6.367,6.367,0,0,0,.87-.057,4.348,4.348,0,0,0,.746-.169,3.158,3.158,0,0,0,.619-.275,2.616,2.616,0,0,0,.5-.382,2.556,2.556,0,0,0,.39-.488,2.986,2.986,0,0,0,.281-.6,4.091,4.091,0,0,0,.171-.719A5.735,5.735,0,0,0,255.038,411.846Zm1.585-.039a7.366,7.366,0,0,1-.081,1.113,5.334,5.334,0,0,1-.244.983,4.266,4.266,0,0,1-.41.853,3.914,3.914,0,0,1-.577.714,3.994,3.994,0,0,1-.73.561,4.533,4.533,0,0,1-.87.4,5.7,5.7,0,0,1-1,.236,7.816,7.816,0,0,1-1.133.078h-1.831a1.109,1.109,0,0,1-.382-.064.862.862,0,0,1-.309-.2.851.851,0,0,1-.2-.31,1.1,1.1,0,0,1-.065-.382V408a1.1,1.1,0,0,1,.064-.382.834.834,0,0,1,.506-.506,1.081,1.081,0,0,1,.382-.065h2.1a6.925,6.925,0,0,1,1.055.078,5.173,5.173,0,0,1,.938.234,4.22,4.22,0,0,1,.822.394,3.914,3.914,0,0,1,1.251,1.252,4.28,4.28,0,0,1,.395.819,5.1,5.1,0,0,1,.234.934A6.688,6.688,0,0,1,256.623,411.807Zm14.366.62-1.071-2.859-.1-.313-.077.241-.124.362-.976,2.57Zm.5,1.414h-3.406l-.887,2.29a1.162,1.162,0,0,1-.16.291.909.909,0,0,1-.223.207.923.923,0,0,1-.269.118,1.192,1.192,0,0,1-.3.036.557.557,0,0,1-.1-.011.6.6,0,0,1-.1-.029.674.674,0,0,1-.148-.085.622.622,0,0,1-.121-.12.57.57,0,0,1-.118-.347.6.6,0,0,1,.011-.111.57.57,0,0,1,.032-.108l3.3-8.381a.94.94,0,0,1,.139-.245.752.752,0,0,1,.194-.174.79.79,0,0,1,.232-.1,1.056,1.056,0,0,1,.251-.029,1.091,1.091,0,0,1,.251.029.8.8,0,0,1,.232.1.758.758,0,0,1,.194.172.969.969,0,0,1,.139.247l3.286,8.381a.513.513,0,0,1,.03.1.529.529,0,0,1,.011.105.537.537,0,0,1-.035.189.6.6,0,0,1-.1.17.665.665,0,0,1-.127.119.716.716,0,0,1-.153.084.684.684,0,0,1-.108.032.537.537,0,0,1-.111.012,1.179,1.179,0,0,1-.3-.036.926.926,0,0,1-.269-.118.906.906,0,0,1-.223-.206,1.179,1.179,0,0,1-.16-.291Zm17.8-1.414-1.071-2.859-.1-.313-.077.241c-.338.985-.73,1.957-1.1,2.932Zm.5,1.414h-3.407l-.886,2.29a1.18,1.18,0,0,1-.16.291.909.909,0,0,1-.223.207.922.922,0,0,1-.269.118,1.187,1.187,0,0,1-.3.036.547.547,0,0,1-.1-.011.606.606,0,0,1-.1-.029.651.651,0,0,1-.148-.085.628.628,0,0,1-.121-.121.58.58,0,0,1-.087-.165.563.563,0,0,1-.031-.181.586.586,0,0,1,.011-.111.633.633,0,0,1,.032-.108l3.3-8.381a.927.927,0,0,1,.139-.245.756.756,0,0,1,.2-.174.786.786,0,0,1,.232-.1,1.056,1.056,0,0,1,.251-.029,1.089,1.089,0,0,1,.251.029.806.806,0,0,1,.231.1.743.743,0,0,1,.2.173.954.954,0,0,1,.139.246l3.286,8.381a.573.573,0,0,1,.04.205.541.541,0,0,1-.035.19.62.62,0,0,1-.1.169.642.642,0,0,1-.126.119.716.716,0,0,1-.153.084.683.683,0,0,1-.108.032.537.537,0,0,1-.11.012,1.18,1.18,0,0,1-.3-.036.919.919,0,0,1-.269-.118.905.905,0,0,1-.223-.206,1.179,1.179,0,0,1-.16-.291Zm5.058-2.1h.746c.235,0,.45-.009.644-.028a4.258,4.258,0,0,0,.54-.083,2.677,2.677,0,0,0,.431-.132,1.605,1.605,0,0,0,.325-.177,1.24,1.24,0,0,0,.236-.225,1.28,1.28,0,0,0,.17-.285,1.626,1.626,0,0,0,.106-.358,2.432,2.432,0,0,0,.035-.434,2.163,2.163,0,0,0-.033-.388,1.55,1.55,0,0,0-.1-.324,1.228,1.228,0,0,0-.159-.264,1.179,1.179,0,0,0-.221-.215,1.485,1.485,0,0,0-.3-.172,2.321,2.321,0,0,0-.388-.127,3.5,3.5,0,0,0-.481-.08q-.259-.026-.57-.026h-.981Zm4.792-1.771a3.692,3.692,0,0,1-.065.7,2.915,2.915,0,0,1-.2.628,2.565,2.565,0,0,1-.328.547,2.69,2.69,0,0,1-.456.455,3.123,3.123,0,0,1-.57.356,3.908,3.908,0,0,1-.673.251,6.214,6.214,0,0,1-1.637.2h-.867v2.935a.689.689,0,0,1-.057.279.671.671,0,0,1-.168.229.753.753,0,0,1-.246.147.849.849,0,0,1-.58,0,.751.751,0,0,1-.248-.15.672.672,0,0,1-.165-.233.714.714,0,0,1-.056-.282v-8.021a1.118,1.118,0,0,1,.064-.383.84.84,0,0,1,.5-.51,1.1,1.1,0,0,1,.38-.065h1.673a6.293,6.293,0,0,1,1.578.178,3.15,3.15,0,0,1,1.16.543,2.313,2.313,0,0,1,.717.927A3.2,3.2,0,0,1,299.65,409.967Zm2.763,1.771h.745q.353,0,.644-.028a4.182,4.182,0,0,0,.54-.083,2.675,2.675,0,0,0,.431-.132,1.629,1.629,0,0,0,.326-.177,1.218,1.218,0,0,0,.235-.225,1.285,1.285,0,0,0,.169-.285,1.647,1.647,0,0,0,.106-.358,2.43,2.43,0,0,0,.036-.434,2.118,2.118,0,0,0-.033-.388,1.489,1.489,0,0,0-.1-.324,1.255,1.255,0,0,0-.159-.264,1.218,1.218,0,0,0-.222-.214,1.5,1.5,0,0,0-.3-.172,2.311,2.311,0,0,0-.388-.127,3.468,3.468,0,0,0-.48-.08c-.173-.017-.364-.026-.57-.026h-.981Zm4.792-1.771a3.687,3.687,0,0,1-.065.7,2.931,2.931,0,0,1-.2.628,2.564,2.564,0,0,1-.328.547,2.688,2.688,0,0,1-.456.455,3.14,3.14,0,0,1-.57.356,3.908,3.908,0,0,1-.673.251,5.19,5.19,0,0,1-.77.148,7.23,7.23,0,0,1-.867.049h-.867v2.935a.666.666,0,0,1-.225.507.751.751,0,0,1-.246.147.831.831,0,0,1-.288.051.856.856,0,0,1-.292-.051.758.758,0,0,1-.248-.15.679.679,0,0,1-.165-.232.73.73,0,0,1-.056-.283v-8.021a1.118,1.118,0,0,1,.065-.383.844.844,0,0,1,.5-.51,1.107,1.107,0,0,1,.381-.065h1.672a6.293,6.293,0,0,1,1.578.178,3.145,3.145,0,0,1,1.16.543,2.323,2.323,0,0,1,.718.927A3.2,3.2,0,0,1,307.206,409.967Zm-48.333-11.542-.847.847a.464.464,0,0,1-.655,0l-.847-.847-1.892-1.892a.464.464,0,0,1,0-.655l.847-.847a.465.465,0,0,1,.655,0L257.7,396.6l1.564-1.564a.465.465,0,0,1,.655,0l.847.847a.464.464,0,0,1,0,.655Zm-8.615-10.651a3.005,3.005,0,0,0,.511,1.736q1.31,1.91,5.907,1.91,5.651,0,7.394-1.421a.914.914,0,0,0,.208-.707,10.7,10.7,0,0,0-.556-2.182c-.206-.714.093-1.054.616-1.686.345-.417.574-.467.858.025a6.635,6.635,0,0,1,.7,2.5c.014.178.019.35.02.528a4.971,4.971,0,0,1-.467,2.2q-1.276,2.67-8.782,2.668a12.108,12.108,0,0,1-5.714-1.073,4.093,4.093,0,0,1-2.2-3.86,7.976,7.976,0,0,1,.451-2.65c.163-.456.442-.759.91-.565.655.272.325.936.241,1.459A7.333,7.333,0,0,0,250.257,387.774Zm17.112-5.456c-.051-.843-.092-1.689-.224-2.524-.117-.737.067-.851.692-1.232,1.022-.623,1.107-.147,1.171,1.03.108,1.983.175,3.965.184,5.95,0,2.154,0,4.308-.05,6.461a1.383,1.383,0,0,1-.757,1.375c-.424.212-.72.114-.742-.389-.01-.239.022-.552.022-.811,0-.9-.023-1.791-.039-2.686C267.585,387.1,267.515,384.708,267.369,382.318Zm18.953,16.107-.847.847a.464.464,0,0,1-.655,0l-.847-.847-1.892-1.892a.465.465,0,0,1,0-.655l.847-.847a.465.465,0,0,1,.655,0l1.565,1.564,1.564-1.564a.465.465,0,0,1,.656,0l.847.847a.464.464,0,0,1,0,.655Zm-8.615-10.651a3.005,3.005,0,0,0,.511,1.736q1.31,1.91,5.907,1.91,5.652,0,7.395-1.421a.914.914,0,0,0,.208-.707,10.744,10.744,0,0,0-.557-2.182c-.206-.714.094-1.054.616-1.686.345-.417.574-.467.859.025a6.634,6.634,0,0,1,.7,2.5c.014.178.02.35.02.528a4.979,4.979,0,0,1-.466,2.2q-1.277,2.67-8.783,2.668a12.106,12.106,0,0,1-5.714-1.073,4.092,4.092,0,0,1-2.2-3.86,7.992,7.992,0,0,1,.45-2.65c.163-.456.442-.759.91-.565.654.272.326.936.241,1.459A7.257,7.257,0,0,0,277.708,387.774Zm17.112-5.456c-.051-.843-.092-1.689-.224-2.524-.118-.737.066-.851.692-1.232,1.022-.623,1.107-.147,1.171,1.03.108,1.983.176,3.965.184,5.95,0,2.154,0,4.308-.05,6.461a1.384,1.384,0,0,1-.757,1.375c-.424.212-.72.114-.741-.389-.01-.239.021-.552.022-.811,0-.9-.024-1.791-.04-2.686C295.035,387.1,294.965,384.708,294.82,382.318Zm7.027,9.1q3.858,0,3.86-1.5a2.014,2.014,0,0,0-.252-.866,11.242,11.242,0,0,0-3.657-3.662c-.631-.434-.541-.808-.234-1.617.274-.723.622-.83,1.16-.4.608.482,1.637,1.433,1.949,1.739a8.875,8.875,0,0,1,2.411,3.514,3.619,3.619,0,0,1,.163,1.048,2.9,2.9,0,0,1-.285,1.322q-1.15,2.376-5.1,2.376c-1.96-.029-3.519-.583-3.393-2.742.031-.526.227-1.016.881-.888.426.083.476.524.628.917.113.291.355.569,1.083.7A4.665,4.665,0,0,0,301.847,391.419Zm-36.468-14.138v-.4a.4.4,0,0,1,.246-.4l3.909-1.644c.232-.1.416-.045.416.232v.282a.6.6,0,0,1-.345.552l-3.871,1.632C265.519,377.625,265.379,377.492,265.379,377.281Zm15.777,32.686a3.689,3.689,0,0,1-.065.7,2.884,2.884,0,0,1-.2.628,2.547,2.547,0,0,1-.327.547,2.658,2.658,0,0,1-.457.456,3.121,3.121,0,0,1-.57.356,3.908,3.908,0,0,1-.673.251,5.2,5.2,0,0,1-.769.148,7.251,7.251,0,0,1-.868.049h-.866v2.935a.682.682,0,0,1-.058.278.661.661,0,0,1-.167.23.751.751,0,0,1-.246.147.826.826,0,0,1-.288.051.843.843,0,0,1-.291-.051.749.749,0,0,1-.248-.15.679.679,0,0,1-.165-.232.719.719,0,0,1-.056-.283v-8.021a1.136,1.136,0,0,1,.064-.383.867.867,0,0,1,.2-.311.855.855,0,0,1,.307-.2,1.1,1.1,0,0,1,.381-.065h1.672a6.3,6.3,0,0,1,1.579.178,3.154,3.154,0,0,1,1.16.543,2.327,2.327,0,0,1,.717.927A3.2,3.2,0,0,1,281.155,409.967Z" transform="translate(-248.751 -374.793)"/></svg>