<svg xmlns="http://www.w3.org/2000/svg" width="23" height="23" viewBox="0 0 23 23"><defs><style>.a{fill:none;stroke:#19212e;stroke-linecap:round;stroke-linejoin:round;stroke-miterlimit:10;}</style></defs><g transform="translate(-0.5 -0.5)"><path class="a" d="M8,15H1V5H23V16"/><path class="a" d="M5,15v.5A7.5,7.5,0,0,0,12.5,23h0A7.5,7.5,0,0,0,20,15.5V8h0a4,4,0,0,0-4,4v2a4,4,0,0,0-4,4"/><circle class="a" cx="1" cy="1" r="1" transform="translate(11 9)"/><circle class="a" cx="1" cy="1" r="1" transform="translate(7 9)"/><circle class="a" cx="1" cy="1" r="1" transform="translate(3 9)"/><path class="a" d="M19,5V4a3,3,0,0,0-3-3H8A3,3,0,0,0,5,4V5"/></g></svg>