<svg xmlns="http://www.w3.org/2000/svg" width="302" height="228.865" viewBox="0 0 302 228.865">
  <g id="Group_32" data-name="Group 32" transform="translate(-28.5 -109.911)">
    <g id="Group_27" data-name="Group 27" transform="translate(-264.32 -12.354)">
      <g id="Group_2" data-name="Group 2" transform="translate(360.776 174.407) rotate(20)">
        <rect id="Rectangle_80" data-name="Rectangle 80" width="40.886" height="25.993" rx="2.199" fill="#01b090"/>
        <rect id="Rectangle_81" data-name="Rectangle 81" width="36.874" height="4.522" rx="0.523" transform="translate(2.251 1.664)" fill="#fff"/>
        <rect id="Rectangle_82" data-name="Rectangle 82" width="36.874" height="1.919" rx="0.523" transform="translate(2.251 19.05)" fill="#fff"/>
        <rect id="Rectangle_83" data-name="Rectangle 83" width="7.881" height="1.919" rx="0.523" transform="translate(2.251 22.06)" fill="#fff"/>
        <rect id="Rectangle_84" data-name="Rectangle 84" width="7.642" height="4.522" rx="0.523" transform="translate(2.251 13.138)" fill="#fff"/>
        <rect id="Rectangle_85" data-name="Rectangle 85" width="4.299" height="4.522" rx="0.523" transform="translate(10.467 13.138)" fill="#fff"/>
        <rect id="Rectangle_86" data-name="Rectangle 86" width="2.937" height="4.522" rx="0.523" transform="translate(15.386 13.138)" fill="#fff"/>
      </g>
      <g id="Group_28" data-name="Group 28" transform="translate(539.97 252.755) rotate(-16)">
        <rect id="Rectangle_80-2" data-name="Rectangle 80" width="36.926" height="23.475" rx="2.199" fill="#01b090"/>
        <rect id="Rectangle_81-2" data-name="Rectangle 81" width="33.302" height="4.084" rx="0.523" transform="translate(2.033 1.503)" fill="#fff"/>
        <rect id="Rectangle_82-2" data-name="Rectangle 82" width="33.302" height="1.733" rx="0.523" transform="translate(2.033 17.205)" fill="#fff"/>
        <rect id="Rectangle_83-2" data-name="Rectangle 83" width="7.118" height="1.733" rx="0.523" transform="translate(2.033 19.923)" fill="#fff"/>
        <rect id="Rectangle_84-2" data-name="Rectangle 84" width="6.902" height="4.084" rx="0.523" transform="translate(2.033 11.865)" fill="#fff"/>
        <rect id="Rectangle_85-2" data-name="Rectangle 85" width="3.882" height="4.084" rx="0.523" transform="translate(9.453 11.865)" fill="#fff"/>
        <rect id="Rectangle_86-2" data-name="Rectangle 86" width="2.653" height="4.084" rx="0.523" transform="translate(13.896 11.865)" fill="#fff"/>
      </g>
      <g id="Group_3" data-name="Group 3" transform="translate(304.942 266.235)">
        <path id="Path_33" data-name="Path 33" d="M450.4,316.062c-.22-5.417-1.63-10.91-4.849-15.271-.994-1.345-2.829-2.664-4.175-1.671a3.166,3.166,0,0,0-.967,1.543c-1.648,4.58-1.243,9.642-.3,14.418.131.664.273,1.327.419,1.99a79.169,79.169,0,0,0-9.774-16.6c-1.691-2.272-3.528-4.558-6.036-5.874a4.486,4.486,0,0,0-4.153-.352c-1.861,1.027-1.954,3.657-1.544,5.743,1.936,9.876,9.193,17.424,15.269,25.625-6-5.642-14.544-13.9-21.616-12.091-.345.088-5.723,2.494-1.422,7.141,5.112,5.523,19.68,10.637,22.792,18.145-9.938-5.937-14.193-5.884-18.654-5.32-3.438.435-8.2,5.1-5.086,8.49,2.154,2.346,5.758,2.565,8.925,2.224,3.458-.372,6.87-1.215,10.347-1.31s7.167.665,9.7,3.049l9.437-13.744A71.4,71.4,0,0,0,450.4,316.062Z" transform="translate(-356.992 -293.872)" fill="#01b292"/>
        <path id="Path_34" data-name="Path 34" d="M610.958,351.758c-7.3-7.557-23.318,2.584-31.108,8.813,8.509-7.917,18.2-14.855,22.427-25.507.892-2.251,1.336-5.214-.534-6.752-1.274-1.047-3.146-.956-4.722-.468-3.082.952-5.613,3.128-7.98,5.319a90.139,90.139,0,0,0-14.395,16.546c1.431-12.828,12.562-25.61,7.115-26.349-6.976-.948-15.95,15.863-17.442,21.162-1.209-5.794-3.015-9.571-4.254-11.39-.972-1.429-2.547-2.814-4.228-2.406-1.845.447-2.531,2.714-2.588,4.612-.315,10.395,8.1,19.6,7.641,29.985l9.144,16.966c3.332-2.141,7.621-2.225,11.494-1.393s7.516,2.484,11.31,3.62c3.473,1.041,13.373,2.3,16.272.117,4.191-3.148,2.035-8.652-3.926-10.563-4.874-1.563-11.4-3.273-27.807,1.324,5.76-7.656,18.387-7.409,26.474-10.975C609.234,362.046,614.078,354.989,610.958,351.758Z" transform="translate(-370.663 -305.18)" fill="#01b292"/>
        <path id="Path_36" data-name="Path 36" d="M563.652,381.3s16.488-25.749,26.135-11.725c8.432,12.258-22.09,18.213-22.09,18.213" transform="translate(-371.082 -306.874)" fill="#01ac8d"/>
        <path id="Path_35" data-name="Path 35" d="M614.634,389.289H363c.155-.579,1.085-1.551,3.586-3.153,5.353-3.452,22.261-.351,22.261-.351s-3.937-1.571-3.917-3.617a5.53,5.53,0,0,1,3.411-4.672,12.847,12.847,0,0,1,6-.785,38.26,38.26,0,0,1,12.082,2.708,3.506,3.506,0,1,1,4.062-5.695c-2.6-3.513-8.7-21.228,3.645-28.1,15.472-8.61,29.3.6,31.8,5.777,1.272-5.085,7.1-8.964,10.955-9.89,18.346-4.413,31.748,11.348,31.924,11.616.177-.269.362-.537.559-.806,1.922-2.553,5.8-7.162,8.7-8.517,8.186-3.824,13.89-4.474,22.665-2.294,3.845.95,9.684,4.805,10.955,9.89,2.5-5.178,14.252-12.267,29.724-3.659,12.34,6.874,8.33,22.469,5.726,25.982a3.506,3.506,0,1,1,4.062,5.695,38.26,38.26,0,0,1,12.082-2.708,12.847,12.847,0,0,1,6,.785,5.53,5.53,0,0,1,3.411,4.672c.02,2.046-3.917,3.617-3.917,3.617s16.907-3.1,22.261.351C613.549,387.739,614.479,388.711,614.634,389.289Z" transform="translate(-362.999 -305.863)" fill="#02967c"/>
        <path id="Path_37" data-name="Path 37" d="M588.788,384.332" transform="translate(-372.094 -307.638)" fill="#bdf3ff"/>
      </g>
      <g id="Group_19" data-name="Group 19" transform="translate(317.568 122.265)">
        <path id="Path_38" data-name="Path 38" d="M327.53,231.023a1.671,1.671,0,1,1-1.671-1.671A1.671,1.671,0,0,1,327.53,231.023Z" transform="translate(-322.239 -138.469)" fill="#01b191"/>
        <path id="Path_39" data-name="Path 39" d="M323.935,277.6a1.022,1.022,0,1,1-1.022-1.022A1.022,1.022,0,0,1,323.935,277.6Z" transform="translate(-321.891 -145.614)" fill="#01b191"/>
        <path id="Path_40" data-name="Path 40" d="M352.472,301.2a1.022,1.022,0,1,1-1.022-1.022A1.022,1.022,0,0,1,352.472,301.2Z" transform="translate(-326.209 -149.186)" fill="#01b191"/>
        <path id="Path_41" data-name="Path 41" d="M633.412,218.97a1.671,1.671,0,1,1-1.671-1.671A1.672,1.672,0,0,1,633.412,218.97Z" transform="translate(-368.523 -136.645)" fill="#01b191"/>
        <path id="Path_42" data-name="Path 42" d="M437.727,259.144a1.671,1.671,0,1,1-1.671-1.671A1.672,1.672,0,0,1,437.727,259.144Z" transform="translate(-338.913 -142.724)" fill="#01b191"/>
        <g id="Group_6" data-name="Group 6" transform="translate(11.053 34.738)">
          <g id="Group_4" data-name="Group 4" transform="translate(1.88)">
            <path id="Path_43" data-name="Path 43" d="M337.663,168.021a.533.533,0,0,1-.533-.533v-3.759a.533.533,0,1,1,1.066,0v3.759A.533.533,0,0,1,337.663,168.021Z" transform="translate(-337.13 -163.196)" fill="#01b191"/>
          </g>
          <g id="Group_5" data-name="Group 5" transform="translate(0 1.88)">
            <path id="Path_44" data-name="Path 44" d="M339.208,166.476h-3.76a.533.533,0,1,1,0-1.065h3.76a.533.533,0,1,1,0,1.065Z" transform="translate(-334.915 -165.411)" fill="#01b191"/>
          </g>
        </g>
        <g id="Group_9" data-name="Group 9" transform="translate(244.556 59.847)">
          <g id="Group_7" data-name="Group 7" transform="translate(1.88)">
            <path id="Path_45" data-name="Path 45" d="M612.8,197.607a.533.533,0,0,1-.533-.533v-3.76a.533.533,0,0,1,1.066,0v3.76A.533.533,0,0,1,612.8,197.607Z" transform="translate(-612.265 -192.782)" fill="#01b191"/>
          </g>
          <g id="Group_8" data-name="Group 8" transform="translate(0 1.879)">
            <path id="Path_46" data-name="Path 46" d="M614.343,196.062h-3.76a.533.533,0,0,1,0-1.066h3.76a.533.533,0,0,1,0,1.066Z" transform="translate(-610.05 -194.996)" fill="#01b191"/>
          </g>
        </g>
        <g id="Group_12" data-name="Group 12" transform="translate(26.893 102.651)">
          <g id="Group_10" data-name="Group 10" transform="translate(1.88)">
            <path id="Path_47" data-name="Path 47" d="M356.326,248.043a.533.533,0,0,1-.532-.533v-3.76a.533.533,0,0,1,1.065,0v3.76A.533.533,0,0,1,356.326,248.043Z" transform="translate(-355.794 -243.218)" fill="#01b191"/>
          </g>
          <g id="Group_11" data-name="Group 11" transform="translate(0 1.879)">
            <path id="Path_48" data-name="Path 48" d="M357.872,246.5h-3.76a.533.533,0,0,1,0-1.066h3.76a.533.533,0,1,1,0,1.066Z" transform="translate(-353.579 -245.432)" fill="#01b191"/>
          </g>
        </g>
        <g id="Group_15" data-name="Group 15" transform="translate(250.615)">
          <g id="Group_13" data-name="Group 13" transform="translate(1.88)">
            <path id="Path_49" data-name="Path 49" d="M619.937,127.09a.533.533,0,0,1-.533-.533V122.8a.533.533,0,0,1,1.066,0v3.76A.533.533,0,0,1,619.937,127.09Z" transform="translate(-619.404 -122.265)" fill="#01b191"/>
          </g>
          <g id="Group_14" data-name="Group 14" transform="translate(0 1.879)">
            <path id="Path_50" data-name="Path 50" d="M621.482,125.545h-3.76a.533.533,0,0,1,0-1.066h3.76a.533.533,0,0,1,0,1.066Z" transform="translate(-617.189 -124.479)" fill="#01b191"/>
          </g>
        </g>
        <g id="Group_18" data-name="Group 18" transform="translate(102.379 18.467)">
          <g id="Group_16" data-name="Group 16" transform="translate(1.88)">
            <path id="Path_51" data-name="Path 51" d="M445.271,148.85a.533.533,0,0,1-.533-.533v-3.76a.533.533,0,1,1,1.065,0v3.76A.533.533,0,0,1,445.271,148.85Z" transform="translate(-444.738 -144.024)" fill="#01b191"/>
          </g>
          <g id="Group_17" data-name="Group 17" transform="translate(0 1.88)">
            <path id="Path_52" data-name="Path 52" d="M446.816,147.3h-3.76a.533.533,0,1,1,0-1.066h3.76a.533.533,0,1,1,0,1.066Z" transform="translate(-442.523 -146.239)" fill="#01b191"/>
          </g>
        </g>
      </g>
      <g id="Group_26" data-name="Group 26" transform="translate(409.748 122.341)">
        <g id="Group_22" data-name="Group 22">
          <path id="Path_53" data-name="Path 53" d="M556.814,122.453l1.633,6.862H487.18c-9.325,0-18.218,7.56-19.863,16.885L436.551,320.686c-.079.448-.134.891-.177,1.33l-1.961-1.518-3.585-.91s2.311,18.142,19.631,17.984h73.7c9.326,0,18.219-7.56,19.863-16.885L574.786,146.2a17.372,17.372,0,0,0,.226-1.911h0C578.564,123.538,556.814,122.453,556.814,122.453Z" transform="translate(-430.555 -122.37)" fill="#00347f"/>
          <path id="Path_54" data-name="Path 54" d="M518.375,330.611h-73.7c-9.326,0-15.553-7.559-13.908-16.885L461.537,139.24c1.644-9.325,10.537-16.885,19.863-16.885h73.7c9.325,0,15.552,7.56,13.907,16.885L538.238,313.726C536.594,323.052,527.7,330.611,518.375,330.611Z" transform="translate(-430.507 -122.355)" fill="#8abfff"/>
          <path id="Path_55" data-name="Path 55" d="M566.255,140.045,535.638,313.678c-1.386,7.858-8.879,14.227-16.736,14.227H446.5c-7.858,0-13.1-6.369-11.719-14.227l30.616-173.633c1.421-8.06,9.107-14.595,17.168-14.595h5.8a3.078,3.078,0,0,1,3.152,2.514l1.09,5.762a2.791,2.791,0,0,0,2.858,2.28H537.62a4.313,4.313,0,0,0,3.663-2.281l3.116-5.758a4.756,4.756,0,0,1,4.039-2.515h5.795C562.294,125.45,567.676,131.985,566.255,140.045Z" transform="translate(-431.119 -122.823)" fill="#165e99"/>
          <g id="Group_20" data-name="Group 20" transform="translate(71.483 5.778)">
            <path id="Path_56" data-name="Path 56" d="M539.791,132.415H516.1a1.327,1.327,0,0,1-1.339-1.626h0a2.025,2.025,0,0,1,1.913-1.626h23.69a1.327,1.327,0,0,1,1.339,1.626h0A2.023,2.023,0,0,1,539.791,132.415Z" transform="translate(-514.735 -129.163)" fill="#165e99"/>
            <path id="Path_57" data-name="Path 57" d="M552.761,130.789a2.025,2.025,0,0,1-1.913,1.626,1.327,1.327,0,0,1-1.339-1.626,2.025,2.025,0,0,1,1.913-1.626A1.327,1.327,0,0,1,552.761,130.789Z" transform="translate(-519.993 -129.163)" fill="#165e99"/>
          </g>
          <g id="Group_21" data-name="Group 21" transform="translate(131.25 40.58)">
            <path id="Path_58" data-name="Path 58" d="M592.627,170.407l.042-.237h-.91a2.409,2.409,0,0,0-2.276,1.935l-4.3,24.356a1.579,1.579,0,0,0,1.595,1.935h.91l.042-.237a2.421,2.421,0,0,0,1.326-1.7l4.294-24.356A1.591,1.591,0,0,0,592.627,170.407Z" transform="translate(-585.157 -170.17)" fill="#083249"/>
            <path id="Path_59" data-name="Path 59" d="M587.854,198.4h0a1.579,1.579,0,0,1-1.595-1.935l4.3-24.356a2.409,2.409,0,0,1,2.276-1.935h0a1.579,1.579,0,0,1,1.595,1.935l-4.294,24.356A2.409,2.409,0,0,1,587.854,198.4Z" transform="translate(-585.32 -170.17)" fill="#8abfff"/>
          </g>
        </g>
        <g id="Group_25" data-name="Group 25" transform="translate(19.32 52.027)">
          <path id="Path_60" data-name="Path 60" d="M536.26,272.271H456.936a3.564,3.564,0,0,1-3.6-4.367l14.085-79.878a5.436,5.436,0,0,1,5.138-4.367h79.323a3.563,3.563,0,0,1,3.6,4.367L541.4,267.9A5.438,5.438,0,0,1,536.26,272.271Z" transform="translate(-453.271 -183.658)" fill="#fff"/>
          <path id="Path_62" data-name="Path 62" d="M531.953,300.5h0a1.736,1.736,0,0,1-1.709,1.433H461.162a1.736,1.736,0,0,1-1.709-2.04h0a1.735,1.735,0,0,1,1.709-1.432h69.081A1.736,1.736,0,0,1,531.953,300.5Z" transform="translate(-454.202 -201.03)" fill="#fff"/>
          <path id="Path_63" data-name="Path 63" d="M501.263,300.5h0a.974.974,0,0,1-.959.8H461.536a.974.974,0,0,1-.959-1.145h0a.974.974,0,0,1,.959-.8H500.3A.974.974,0,0,1,501.263,300.5Z" transform="translate(-454.374 -201.165)" fill="#019379"/>
          <g id="Group_23" data-name="Group 23" transform="translate(5.374 4.652)">
            <path id="Path_64" data-name="Path 64" d="M555.675,189.139h6.717a3.192,3.192,0,0,1,3.222,3.911l-1.089,6.148" transform="translate(-474.14 -189.139)" fill="none" stroke="#02997e" stroke-linecap="round" stroke-linejoin="round" stroke-width="1.002"/>
            <path id="Path_65" data-name="Path 65" d="M460.991,269.129l-1.327,7.516a3.187,3.187,0,0,0,3.214,3.9h6.445" transform="translate(-459.603 -201.243)" fill="none" stroke="#02997e" stroke-linecap="round" stroke-linejoin="round" stroke-width="1.002"/>
            <path id="Path_66" data-name="Path 66" d="M473.25,199.2l1.08-6.148a4.868,4.868,0,0,1,4.6-3.911h6.436" transform="translate(-461.668 -189.139)" fill="none" stroke="#02997e" stroke-linecap="round" stroke-linejoin="round" stroke-width="1.002"/>
            <path id="Path_67" data-name="Path 67" d="M539.2,280.548h6.717a4.862,4.862,0,0,0,4.591-3.9l1.326-7.516" transform="translate(-471.647 -201.243)" fill="none" stroke="#02997e" stroke-linecap="round" stroke-linejoin="round" stroke-width="1.002"/>
          </g>
          <g id="Group_24" data-name="Group 24" transform="translate(12.49 10.772)">
            <path id="Path_68" data-name="Path 68" d="M544.869,250.274h.015l0-.014h-.015Z" transform="translate(-479.621 -204.507)"/>
            <path id="Path_69" data-name="Path 69" d="M500.586,222.15h.013l0-.014h-.013Z" transform="translate(-472.921 -200.252)"/>
            <path id="Path_70" data-name="Path 70" d="M508.206,231.589l0-.014h-.016l0,.013Z" transform="translate(-474.071 -201.68)"/>
            <path id="Path_71" data-name="Path 71" d="M488.889,222.151l0-.015h-.014l0,.015Z" transform="translate(-471.148 -200.252)"/>
            <path id="Path_72" data-name="Path 72" d="M515.768,229.14l0,.013h.013l0-.013Z" transform="translate(-475.218 -201.312)"/>
            <path id="Path_73" data-name="Path 73" d="M520.3,203.437h.014l0-.013H520.3Z" transform="translate(-475.904 -197.42)"/>
            <path id="Path_74" data-name="Path 74" d="M503.069,208.142l0-.013h-.013l0,.013Z" transform="translate(-473.294 -198.132)"/>
            <path id="Path_75" data-name="Path 75" d="M502.26,212.726h-.013l0,.013h.014Z" transform="translate(-473.172 -198.828)"/>
            <path id="Path_76" data-name="Path 76" d="M484.4,233.859h.013l0-.013h-.014Z" transform="translate(-470.472 -202.024)"/>
            <path id="Path_77" data-name="Path 77" d="M479.619,247.961l0,.014.014-.014Z" transform="translate(-469.748 -204.16)"/>
            <path id="Path_78" data-name="Path 78" d="M480.1,231.561h.013l0-.013h-.013Z" transform="translate(-469.821 -201.676)"/>
            <path id="Path_79" data-name="Path 79" d="M481.213,196.361c-.82,4.649-1.629,9.259-2.44,13.87h13.86q1.23-6.96,2.45-13.87Zm9.829,11.9h-9.876c.569-3.27,1.147-6.548,1.735-9.876h9.877C492.2,201.685,491.62,204.955,491.042,208.263Z" transform="translate(-469.62 -196.352)"/>
            <path id="Path_80" data-name="Path 80" d="M470.438,257.412c-.82,4.63-1.63,9.23-2.45,13.87h13.879c.82-4.649,1.629-9.259,2.44-13.87Zm9.847,11.835h-9.876c.578-3.279,1.157-6.559,1.746-9.877h9.876C481.452,262.669,480.874,265.948,480.285,269.247Z" transform="translate(-467.988 -205.59)"/>
            <path id="Path_81" data-name="Path 81" d="M542.285,196.35c-.82,4.648-1.64,9.259-2.449,13.869h13.869c.82-4.639,1.63-9.25,2.45-13.869Zm9.723,11.931h-9.877c.579-3.279,1.158-6.568,1.746-9.886h9.877C553.165,201.713,552.587,204.982,552.008,208.281Z" transform="translate(-478.86 -196.35)"/>
            <path id="Path_82" data-name="Path 82" d="M537.139,201.029h.014l0-.013h-.014Z" transform="translate(-478.452 -197.056)"/>
            <path id="Path_83" data-name="Path 83" d="M528.789,208.129h-.014l0,.014h.015Z" transform="translate(-477.186 -198.132)"/>
            <path id="Path_84" data-name="Path 84" d="M534.894,205.006c.241-1.36.472-2.661.7-3.974h-2.035c-.115.656-.231,1.312-.347,2.006h-1.967c.115-.676.231-1.341.356-2.006H529.55c-.125.7-.241,1.36-.366,2.044h-1.9c-.116.656-.232,1.283-.347,1.958h1.929c-.126.7-.241,1.36-.357,2.016.665,0,1.341-.01,2.006-.02-.232,1.293-.463,2.575-.694,3.935h-2c-.126.675-.241,1.36-.357,2.035H529.5c-.116.675-.232,1.311-.338,1.948h1.948c-.126.7-.241,1.37-.357,2.045h2.016c-.115.646-.221,1.273-.347,1.948h1.958c.82-4.63,1.64-9.259,2.459-13.937Zm-4.37,2.026c.116-.647.222-1.293.348-1.977h1.987c-.116.656-.241,1.321-.357,1.987C531.846,207.041,531.18,207.031,530.524,207.031Zm2.942,5.951h-2q.521-2.952,1.052-5.922h1.987C534.161,209.047,533.814,211,533.467,212.982Z" transform="translate(-476.908 -197.058)"/>
            <path id="Path_85" data-name="Path 85" d="M529.554,217.431h-.013l0,.013h.012Z" transform="translate(-477.302 -199.54)"/>
            <path id="Path_86" data-name="Path 86" d="M499.344,269.063h-.014l0,.015Z" transform="translate(-472.73 -207.353)"/>
            <path id="Path_87" data-name="Path 87" d="M538.136,222.136h-.013l0,.011h.014Z" transform="translate(-478.6 -200.252)"/>
            <path id="Path_88" data-name="Path 88" d="M543.06,233.859h.013l0-.013h-.014Z" transform="translate(-479.348 -202.024)"/>
            <path id="Path_89" data-name="Path 89" d="M484.336,247.976l0-.014h-.013l0,.014Z" transform="translate(-470.46 -204.16)"/>
            <path id="Path_90" data-name="Path 90" d="M479.617,247.975h.012l0-.014Z" transform="translate(-469.748 -204.16)"/>
            <path id="Path_91" data-name="Path 91" d="M481.916,247.975h.013l0-.013h-.013Z" transform="translate(-470.096 -204.16)"/>
            <path id="Path_92" data-name="Path 92" d="M520.013,271.414l0-.014H520l0,.014Z" transform="translate(-475.858 -207.706)"/>
            <path id="Path_93" data-name="Path 93" d="M522.091,259.685h.013l0-.014h-.013Z" transform="translate(-476.175 -205.931)"/>
            <path id="Path_94" data-name="Path 94" d="M518.911,265.6c.347-2.006.694-3.955,1.041-5.913h-2.035c-.231,1.321-.463,2.633-.7,4h-1.968c-.115.676-.231,1.3-.337,1.929h-1.958c-.242,1.37-.473,2.672-.7,3.993h-3.955c-.115.676-.241,1.341-.356,2.017h7.88c.126-.676.232-1.312.357-2h2.006c.106-.646.222-1.3.347-1.987h1.949c.115-.685.232-1.341.357-2.044Zm-2.431,2.035h-1.92c.126-.665.242-1.332.357-2.006h1.91C516.712,266.3,516.6,266.948,516.48,267.633Z" transform="translate(-474.033 -205.934)"/>
            <path id="Path_95" data-name="Path 95" d="M498.6,219.838h-.012l0,.014h.012Z" transform="translate(-472.618 -199.904)"/>
            <path id="Path_96" data-name="Path 96" d="M485.351,221.084h2.042l.7-3.995h3.877c.117-.664.227-1.287.336-1.906h-9.88c-.234,1.331-.463,2.624-.7,3.969h1.98c-.12.677-.229,1.3-.338,1.917h-3.921l-.39,2.058h5.929Z" transform="translate(-469.664 -199.2)"/>
            <path id="Path_97" data-name="Path 97" d="M486.059,224.545h-.013l0,.013h.013l0-.013Z" transform="translate(-470.72 -200.616)"/>
            <path id="Path_98" data-name="Path 98" d="M513.189,203.423l0,.014h.014l0-.014Z" transform="translate(-474.827 -197.42)"/>
            <path id="Path_99" data-name="Path 99" d="M504.325,201.016h-.013l0,.014h.013Z" transform="translate(-473.484 -197.056)"/>
            <path id="Path_100" data-name="Path 100" d="M527.55,215.145l0,0,0-.014h-.014l0,.014h.015Z" transform="translate(-476.999 -199.192)"/>
            <path id="Path_101" data-name="Path 101" d="M531.413,219.852h.013l0-.014h-.013Z" transform="translate(-477.585 -199.904)"/>
            <path id="Path_102" data-name="Path 102" d="M520.142,217.444l0-.013h-.012l0,.013Z" transform="translate(-475.878 -199.54)"/>
            <path id="Path_103" data-name="Path 103" d="M521.345,221.054l.332-1.886h3.9c-.228,1.3-.456,2.591-.7,3.941h2.038c-.117.668-.226,1.281-.34,1.932h1.967q.518-2.942,1.04-5.9h-1.95c.124-.7.242-1.374.361-2.044H525.95c.119-.674.232-1.312.344-1.949h-1.962c-.119.673-.228,1.3-.344,1.949H520.02c-.231,1.309-.462,2.617-.7,3.956Z" transform="translate(-475.756 -199.195)"/>
            <path id="Path_104" data-name="Path 104" d="M547.435,219.155c.241-1.379.473-2.681.7-3.974h-9.915c-.357,1.987-.7,3.945-1.042,5.9h1.92c.106-.637.222-1.254.338-1.958h1.948c-.231,1.332-.453,2.672-.685,4h-1.948c-.126.694-.232,1.321-.338,1.948h-1.958c.241-1.341.473-2.661.7-3.983h-2.026c-.347,1.958-.694,3.916-1.051,5.922h-1.919c-.126.7-.241,1.36-.367,2.054h1.9c-.232,1.332-.463,2.633-.7,3.993h2.055c.115-.656.231-1.311.367-2.044h1.948c.087-.5.183-.994.27-1.5.039-.173.068-.347.1-.53q.347-1.953.694-3.906h1.949c.126-.7.232-1.321.338-1.949h2.025c-.231,1.293-.453,2.566-.685,3.887h1.958c.232-1.283.454-2.566.7-3.906H548.7c.241-1.35.473-2.652.7-3.964Zm-6.028-.038c.115-.656.232-1.312.347-2h2.064c-.115.665-.241,1.332-.357,2.006C542.777,219.116,542.092,219.116,541.407,219.116Zm3.637,1.949h-1.91c.116-.656.232-1.293.338-1.929h1.909C545.265,219.791,545.159,220.409,545.044,221.065Z" transform="translate(-477.644 -199.199)"/>
            <path id="Path_105" data-name="Path 105" d="M535.727,222.148l0-.012h-.013l0,.012Z" transform="translate(-478.236 -200.252)"/>
            <path id="Path_106" data-name="Path 106" d="M538.356,233.846l0,.013h.014l0-.013Z" transform="translate(-478.635 -202.024)"/>
            <path id="Path_107" data-name="Path 107" d="M535.635,236.253l0,.014h.013l0-.014Z" transform="translate(-478.224 -202.388)"/>
            <path id="Path_108" data-name="Path 108" d="M520.079,202.354h3.953c.126-.712.241-1.366.362-2.052h-1.976c.116-.657.226-1.28.345-1.957H526.7c.123-.7.236-1.342.351-1.989h-7.952c-.121.689-.238,1.347-.353,2h2.043C520.545,199.714,520.313,201.034,520.079,202.354Z" transform="translate(-475.668 -196.351)"/>
            <path id="Path_109" data-name="Path 109" d="M518.738,198.718h-.014l0,.014h.014Z" transform="translate(-475.665 -196.708)"/>
            <path id="Path_110" data-name="Path 110" d="M543.423,230.833c-.121.687-.233,1.323-.345,1.96h4c.119-.675.229-1.3.348-1.972h1.953c.122-.7.236-1.338.358-2.03h1.984c.119-.675.229-1.3.337-1.908H548.1c-.115.649-.225,1.273-.34,1.929H545.73c-.115.657-.232,1.314-.357,2.022Z" transform="translate(-479.35 -200.97)"/>
            <path id="Path_111" data-name="Path 111" d="M546.2,229.153l0-.013h-.014l0,.013Z" transform="translate(-479.821 -201.312)"/>
            <path id="Path_112" data-name="Path 112" d="M513.4,254.981c-.23,1.309-.461,2.616-.7,3.981h2.03l.337-1.911h1.964l-.337,1.91h1.938c.23-1.308.461-2.616.7-3.981Z" transform="translate(-474.753 -205.222)"/>
            <path id="Path_113" data-name="Path 113" d="M519.687,259.672l0,.013h.013l0-.013Z" transform="translate(-475.81 -205.932)"/>
            <path id="Path_114" data-name="Path 114" d="M513.523,254.979l0-.013h-.013l0,.013Z" transform="translate(-474.876 -205.22)"/>
            <path id="Path_115" data-name="Path 115" d="M532.448,201.016h-.013l0,.014h.012Z" transform="translate(-477.74 -197.056)"/>
            <path id="Path_116" data-name="Path 116" d="M534.433,198.361h2.042c.119-.669.237-1.338.353-2h-6c-.12.677-.233,1.32-.356,2.017h2.024c-.12.681-.231,1.308-.341,1.934h1.938Z" transform="translate(-477.442 -196.352)"/>
            <path id="Path_117" data-name="Path 117" d="M534.734,201.016l0,.013h.013l0-.013Z" transform="translate(-478.087 -197.056)"/>
            <circle id="Ellipse_5" data-name="Ellipse 5" cx="0.01" cy="0.01" r="0.01" transform="translate(10.637 27.834) rotate(-42.479)"/>
            <path id="Path_118" data-name="Path 118" d="M479.054,224.557l0,0,0-.014h-.014l0,.014h.014Z" transform="translate(-469.66 -200.616)"/>
            <path id="Path_119" data-name="Path 119" d="M477.808,231.55l0,.011h.013l0-.011Z" transform="translate(-469.474 -201.676)"/>
            <path id="Path_120" data-name="Path 120" d="M479.762,228.447c.11-.625.221-1.252.34-1.927h-1.95c.121-.686.233-1.322.345-1.959h-2c-.354,2.006-.7,3.957-1.046,5.931h2l.361-2.045Z" transform="translate(-469.117 -200.619)"/>
            <path id="Path_121" data-name="Path 121" d="M479.5,222.105l0,.013h.015l0-.012Z" transform="translate(-469.73 -200.247)"/>
            <path id="Path_122" data-name="Path 122" d="M478.145,215.171c-.348,1.976-.693,3.925-1.038,5.885h2.035q.518-2.943,1.037-5.885Z" transform="translate(-469.368 -199.198)"/>
            <path id="Path_123" data-name="Path 123" d="M504.467,266.3H510.4c.116-.659.227-1.286.338-1.913H504.8Q504.636,265.348,504.467,266.3Z" transform="translate(-473.508 -206.646)"/>
            <path id="Path_124" data-name="Path 124" d="M504.85,264.375l0,.014,0,0,0,0h.014l0-.014Z" transform="translate(-473.565 -206.643)"/>
            <path id="Path_125" data-name="Path 125" d="M511.851,264.39h.013l0-.012h-.014Z" transform="translate(-474.625 -206.644)"/>
            <path id="Path_126" data-name="Path 126" d="M522.557,214.422c.24-1.36.469-2.661.7-3.981h-2q-.351,1.991-.7,3.981Z" transform="translate(-475.942 -198.482)"/>
            <path id="Path_127" data-name="Path 127" d="M521.377,210.439l0-.012h-.013l0,.012Z" transform="translate(-476.065 -198.48)"/>
            <path id="Path_128" data-name="Path 128" d="M527.965,212.725l0,.013h.014l0-.013Z" transform="translate(-477.063 -198.828)"/>
            <path id="Path_129" data-name="Path 129" d="M526.4,208.145c-.233,1.324-.457,2.594-.685,3.887h1.911l.685-3.887Z" transform="translate(-476.723 -198.135)"/>
            <path id="Path_130" data-name="Path 130" d="M550.037,233.884c-.12.68-.235,1.333-.35,1.984h1.995c.119-.676.232-1.318.35-1.984Z" transform="translate(-480.35 -202.029)"/>
            <path id="Path_131" data-name="Path 131" d="M546.776,252.378l-.35,1.984h1.994c.119-.676.233-1.318.35-1.984Z" transform="translate(-479.857 -204.828)"/>
            <path id="Path_132" data-name="Path 132" d="M511.869,264.016H513.9c.126-.716.242-1.374.358-2.031h-2.028Z" transform="translate(-474.628 -206.282)"/>
            <path id="Path_133" data-name="Path 133" d="M514.68,261.982h.015l0-.014h-.014Z" transform="translate(-475.053 -206.279)"/>
            <path id="Path_134" data-name="Path 134" d="M552.556,219.85h-.014l.007.009-.007-.009,0,.014h.014Z" transform="translate(-480.782 -199.906)"/>
            <path id="Path_135" data-name="Path 135" d="M554.906,217.483h-1.993c-.123.694-.239,1.352-.355,2.009h1.993C554.68,218.771,554.794,218.119,554.906,217.483Z" transform="translate(-480.785 -199.548)"/>
            <path id="Path_136" data-name="Path 136" d="M549.595,247.6c.126-.711.24-1.363.358-2.028h-2q-.18,1.015-.358,2.028Z" transform="translate(-480.033 -203.798)"/>
            <path id="Path_137" data-name="Path 137" d="M495.8,273.414c.119-.678.234-1.331.351-1.994h-2.033q-.174,1-.351,1.994Z" transform="translate(-471.889 -207.709)"/>
            <path id="Path_138" data-name="Path 138" d="M494.182,271.418l0-.014h-.016l0,.013Z" transform="translate(-471.949 -207.707)"/>
            <path id="Path_139" data-name="Path 139" d="M501.164,271.432h.01l0-.013h-.009l0,.012Z" transform="translate(-473.008 -207.709)"/>
            <path id="Path_140" data-name="Path 140" d="M502.8,273.413c.12-.681.235-1.333.349-1.979h-2.039c-.116.654-.232,1.306-.35,1.979Z" transform="translate(-472.947 -207.711)"/>
            <path id="Path_141" data-name="Path 141" d="M508.338,271.368l0,.014.01-.009-.01.008h.015l0-.014Z" transform="translate(-474.093 -207.701)"/>
            <path id="Path_142" data-name="Path 142" d="M506.284,269.131c-.114.647-.222,1.258-.334,1.9h2.027c.111-.636.223-1.271.334-1.9Z" transform="translate(-473.732 -207.363)"/>
            <path id="Path_143" data-name="Path 143" d="M486.828,273.4h1.893c.12-.68.233-1.321.351-1.986h-1.893C487.056,272.1,486.941,272.756,486.828,273.4Z" transform="translate(-470.839 -207.708)"/>
            <path id="Path_144" data-name="Path 144" d="M547.576,247.975h.012l0-.013h-.012Z" transform="translate(-480.031 -204.16)"/>
            <path id="Path_145" data-name="Path 145" d="M544.89,249.915h1.937c.121-.682.231-1.31.342-1.938h-1.938C545.115,248.638,545,249.276,544.89,249.915Z" transform="translate(-479.624 -204.162)"/>
            <path id="Path_146" data-name="Path 146" d="M517.849,217.086h1.938l.341-1.938H518.19C518.074,215.808,517.961,216.447,517.849,217.086Z" transform="translate(-475.533 -199.194)"/>
            <path id="Path_147" data-name="Path 147" d="M517.846,217.431h-.014l0,.013h.013Z" transform="translate(-475.53 -199.54)"/>
            <path id="Path_148" data-name="Path 148" d="M520.534,215.146h.013l0-.014h-.013Z" transform="translate(-475.939 -199.192)"/>
            <path id="Path_149" data-name="Path 149" d="M547.656,245.21c.112-.637.225-1.276.342-1.938H546.06l-.342,1.938Z" transform="translate(-479.75 -203.45)"/>
            <path id="Path_150" data-name="Path 150" d="M548.009,245.56l-.011.009h.014l0-.014H548l0,.014Z" transform="translate(-480.095 -203.795)"/>
            <path id="Path_151" data-name="Path 151" d="M546.119,243.27l0-.013h-.014l0,.013Z" transform="translate(-479.808 -203.448)"/>
            <path id="Path_152" data-name="Path 152" d="M500.829,271.065l.35-1.984h-1.9c-.113.637-.226,1.276-.351,1.985Z" transform="translate(-472.67 -207.355)"/>
            <path id="Path_153" data-name="Path 153" d="M499.344,269.064l-.016.014h.014Z" transform="translate(-472.73 -207.353)"/>
            <path id="Path_154" data-name="Path 154" d="M537.557,198.731l0-.013h-.014l0,.013Z" transform="translate(-478.513 -196.708)"/>
            <path id="Path_155" data-name="Path 155" d="M539.068,200.671c.119-.673.228-1.3.342-1.938H537.5q-.17.969-.342,1.938Z" transform="translate(-478.454 -196.711)"/>
            <path id="Path_156" data-name="Path 156" d="M515.1,259.685l0-.013h-.013l0,.013Z" transform="translate(-475.115 -205.932)"/>
            <path id="Path_157" data-name="Path 157" d="M514.7,261.623h1.938c.117-.668.229-1.3.341-1.936h-1.938Q514.872,260.654,514.7,261.623Z" transform="translate(-475.056 -205.934)"/>
            <path id="Path_158" data-name="Path 158" d="M517.386,259.685h.013l0-.014h-.013Z" transform="translate(-475.463 -205.931)"/>
            <path id="Path_159" data-name="Path 159" d="M520.83,224.579h-1.98l-.336,1.908h1.98Z" transform="translate(-475.633 -200.621)"/>
            <path id="Path_160" data-name="Path 160" d="M502.318,196.366h-1.98L500,198.274h1.979C502.1,197.608,502.209,196.986,502.318,196.366Z" transform="translate(-472.832 -196.352)"/>
            <path id="Path_161" data-name="Path 161" d="M507.324,261.263h1.991c.228-1.3.453-2.572.677-3.84h-3.954c-.116.663-.227,1.29-.338,1.916h1.963C507.542,260.026,507.432,260.65,507.324,261.263Z" transform="translate(-473.694 -205.591)"/>
            <path id="Path_162" data-name="Path 162" d="M505.7,259.681h-.014l.005.007,0-.007,0,.014h.013Z" transform="translate(-473.692 -205.933)"/>
            <path id="Path_163" data-name="Path 163" d="M509.421,235.542c.114-.648.586-3.323.7-3.951h-2.033c-.111.634-.586,3.323-.7,3.951Z" transform="translate(-473.95 -201.683)"/>
            <path id="Path_164" data-name="Path 164" d="M488.679,201.05h-3.734l-.658,3.732h3.734C488.242,203.527,488.459,202.3,488.679,201.05Z" transform="translate(-469.132 -195.938)"/>
            <path id="Path_165" data-name="Path 165" d="M473.544,265.629h3.612l.637-3.612h-3.612C473.966,263.236,473.754,264.435,473.544,265.629Z" transform="translate(-467.437 -205.104)"/>
            <path id="Path_166" data-name="Path 166" d="M549.2,201.057h-3.363l-.594,3.371h3.364Z" transform="translate(-478.141 -195.753)"/>
            <path id="Path_167" data-name="Path 167" d="M535.5,232.154c.116-.666.222-1.274.337-1.92h-3.954c.106-.685.212-1.37.328-2.044h-2.016c.126-.724.241-1.389.356-2.045h-1.967c-.029.183-.058.357-.1.53-.086.521-.173,1.013-.26,1.5v.02c-.116.655-.232,1.311-.357,2.044H525.91c-.106.627-.212,1.254-.338,1.929H527.5c-.241,1.341-.463,2.633-.7,3.983h1.958c-.116.685-.232,1.332-.347,1.968h-5.922c.221-1.293.453-2.576.675-3.867H521.2c-.232,1.311-.462,2.584-.685,3.867h-2.025l1.041-5.931h2.006c.241-1.37.462-2.672.7-4.013h-3.954c.232-1.3.462-2.614.7-3.993H516.95c.116-.637.222-1.273.338-1.91H515.32c-.116.655-.222,1.282-.328,1.91-1.977.009-3.964.009-5.941.02-.126.675-.251,1.36-.386,2.035H506.65c-.232,1.331-.463,2.642-.7,3.983h-1.938c-.116.656-.222,1.273-.347,1.968-2.017,0-3.993-.02-5.961-.02-.125.685-.231,1.37-.356,2.044h-2.035c.115-.656.232-1.311.356-2.044H497.7c.347-1.949.685-3.906,1.042-5.913h3.877c.116-.675.232-1.34.357-2.073h6.066c.116-.627.222-1.244.347-1.929h-2.035c.126-.685.232-1.321.347-1.958h2c.126-.714.241-1.37.367-2.055h-2.006c.115-.626.222-1.254.347-1.929h2.026c.125-.714.241-1.379.367-2.054h-2.045c.232-1.341.463-2.653.694-3.974h2.035c.116-.665.222-1.282.348-1.977H513.8c.106-.637.222-1.274.347-1.968h2.026c.115-.694.231-1.341.347-2.006h-3.935c.106-.655.2-1.3.309-1.958h-6.028c-.106.627-.212,1.254-.338,1.929h2.016c-.126.694-.241,1.341-.356,2.016h-3.955c.116-.637.232-1.292.357-2.016h-4c.116-.637.222-1.282.338-1.929,1.977-.009,3.955-.009,5.931-.019.116-.656.232-1.312.357-2.016H511.2c.126-.685.241-1.321.347-1.958h-3.993c.125-.723.241-1.36.357-2.016h-7.88c-.242,1.331-.463,2.643-.7,3.955h1.929c-.115.7-.241,1.369-.356,2.035h-1.939q.174-1.013.348-2.026h-3.945c-.714,4.022-1.408,7.986-2.122,12h1.92c-.241,1.35-.463,2.652-.694,3.964h2.044c-.126.675-.232,1.311-.347,1.948h1.948c.357-2,.7-3.964,1.051-5.931h2.035c.135-.723.251-1.389.367-2.044h1.929c.126-.656.232-1.283.347-1.929h1.92c-.232,1.3-.454,2.6-.7,3.964h-1.89c-.116.665-.232,1.273-.347,1.938h1.91c-.126.694-.241,1.341-.357,2.035h2.055c-.126.694-.232,1.331-.347,1.967h-2.006c-.126.724-.241,1.37-.356,2.055h2c-.106.627-.221,1.253-.338,1.92h-3.974c.347-1.959.694-3.906,1.041-5.884h-1.958c-.231,1.3-.462,2.6-.694,3.935h-4c.115-.676.232-1.341.347-2.016h-2.044c.125-.666.231-1.312.347-1.949h-5.922c-.116.665-.222,1.293-.338,1.91-.656.02-1.311.029-1.967.048-.116.656-.232,1.312-.357,2.035h-2.044c-.115.646-.232,1.282-.347,1.929h-1.929c-.116.665-.222,1.282-.347,1.977h-2.055c-.126.675-.241,1.35-.356,2.025h3.993c-.126.676-.232,1.312-.348,1.949h3.955c-.106.675-.222,1.36-.338,2.044h-1.949c-.115.694-.231,1.321-.337,1.949h-2.045c.232-1.341.463-2.662.7-3.974h-4c.125-.676.231-1.312.347-1.958h-1.939c-.106.646-.222,1.282-.347,1.977h-2.016c-.356,2.026-.7,3.993-1.061,6.01h3.955c-.116.646-.232,1.282-.348,1.967h-3.945c-.588,3.337-1.167,6.616-1.746,9.9h2.016c.348-1.987.7-3.935,1.042-5.931h3.974c.115-.656.232-1.312.357-2h1.967c-.126.665-.241,1.332-.357,2h2.035c.232-1.321.473-2.652.714-3.974h1.939c-.116.636-.232,1.273-.347,1.958h1.948c-.125.7-.241,1.36-.357,2.016-1.293.009-2.594.009-3.887.019-.232,1.3-.463,2.613-.7,3.954h-2.054c.231-1.321.462-2.643.7-3.954H478.38c-.241,1.321-.473,2.633-.714,4H475.64c-.115.665-.221,1.273-.337,1.938h11.969c-.126.694-.241,1.35-.367,2.035h1.939v.009h.009c-.115.637-.221,1.283-.347,1.968h-1.929c-.473,2.672-.936,5.295-1.408,7.976h3.974c-.116.666-.222,1.274-.338,1.949h1.909c.116-.646.222-1.293.347-1.987h4.032c.115-.665.232-1.331.356-2.035h1.958c.116-.656.222-1.282.347-1.938h2.026c.232-1.332.463-2.652.7-3.974h-2.035c-.116.636-.222,1.254-.338,1.919h-1.949c-.116.694-.231,1.35-.357,2.044H493.86c-.115.666-.232,1.283-.338,1.939H489.5c.106-.627.222-1.264.328-1.9h1.919c.241-1.341.473-2.643.714-4h-1.909c.126-.685.232-1.321.347-1.959h4c-.126.666-.232,1.293-.338,1.91H496.5c.241-1.341.473-2.653.7-3.955,3.308,0,6.616-.009,9.925-.009.106-.627.221-1.254.338-1.939h-3.964c.126-.694.241-1.34.357-2.034h3.955c.115-.666.232-1.283.347-1.949H510.2c.115-.694.232-1.341.356-2.055h-3.945c.116-.626.222-1.254.347-1.938H510.9c.115-.665.221-1.273.337-1.949h-1.977c.116-.7.231-1.34.357-2.025h3.945c-.115.637-.232,1.293-.347,1.987h1.92c-.116.665-.222,1.282-.338,1.948h-1.881c-.116.666-.222,1.283-.347,1.968h1.89c-.115.694-.232,1.341-.356,2.035h-1.9c-.116.665-.222,1.282-.347,1.949h1.909c-.126.694-.241,1.34-.357,2.034h2.064c-.356,2.016-.7,3.993-1.051,5.961h1.967c-.115.694-.232,1.311-.347,1.977h2.035c-.241,1.331-.473,2.642-.7,3.963h3.974c.116-.626.222-1.254.337-1.91H525.6c-.116.637-.222,1.273-.337,1.91h2.064c.115-.684.231-1.3.347-1.967h1.938c.126-.685.241-1.341.357-2.035h2.035c.115-.656.231-1.282.347-1.958h1.919c.116-.665.222-1.273.338-1.938h-1.929c.357-2.045.714-4.032,1.061-6.019h-2.025c.115-.656.231-1.273.347-1.967h-4c.126-.676.242-1.35.357-2.026h3.974c.116-.646.222-1.273.347-1.967h2.055c.115-.637.221-1.273.347-1.958h1.929c.126-.7.232-1.341.357-2.044ZM503.689,198.4h1.9c-.106.637-.222,1.244-.328,1.891h-1.91C503.466,199.66,503.572,199.043,503.689,198.4Zm-6.733,3.974h2.006l-.347,1.939h-2.006C496.724,203.662,496.84,203.045,496.956,202.37Zm2.2,9.925h-1.948c.125-.7.241-1.36.356-2.035h-2c.221-1.3.453-2.566.685-3.916h2.005c.126-.676.251-1.351.367-2.026h1.939c-.116.656-.232,1.312-.357,2.044h-1.938c-.232,1.293-.453,2.594-.685,3.887.646,0,1.293.01,1.938.01C499.4,210.935,499.28,211.62,499.155,212.3Zm2.412-2.045h-2.035c.115-.626.222-1.254.337-1.91H501.9C501.788,208.977,501.673,209.613,501.567,210.25Zm8.96-5.912h2.045c-.116.655-.232,1.311-.357,2h-2.035C510.3,205.669,510.411,205.023,510.526,204.338Zm-2.643,3.993h1.9c-.115.637-.231,1.293-.347,1.938h-1.9C507.653,209.594,507.768,208.977,507.884,208.331Zm-1.775,9.915h1.939c-.125.684-.241,1.36-.357,2.035h-1.938C505.868,219.606,505.994,218.93,506.109,218.246Zm-30.285,13.918c.106-.627.222-1.254.338-1.91h1.909c-.115.637-.222,1.273-.338,1.91Zm3.569,2.044h-2.016c.126-.675.25-1.35.367-2.025h2.006C479.624,232.858,479.509,233.5,479.392,234.208Zm16.05-11.94c-.106.626-.212,1.244-.338,1.91h1.939c-.126.694-.232,1.331-.357,2.025h-1.92c-.115.676-.221,1.3-.337,1.949h-3.964c.221-1.293.453-2.6.694-3.945h1.9c.115-.665.232-1.3.338-1.938Zm-2.055-.02h-1.929c.126-.676.232-1.312.347-1.949h1.929C493.619,220.947,493.5,221.6,493.387,222.248Zm-5.18-4.022h3.945c-.126.723-.242,1.4-.367,2.064h-3.945C487.967,219.586,488.092,218.9,488.208,218.227Zm-5.054,5.922c.116-.636.232-1.273.348-1.92h5.892c-.106.656-.221,1.264-.337,1.92Zm5.537,2.112c-.106.626-.212,1.234-.328,1.89h-1.948c.115-.617.221-1.244.337-1.89Zm-5.623,9.9h-2.006c.106-.646.222-1.264.338-1.948H483.4C483.289,234.873,483.173,235.52,483.067,236.166Zm.357-1.958c.116-.675.231-1.35.357-2.025h1.938c-.125.675-.241,1.35-.366,2.025Zm2.151,9.915h-1.938c.115-.656.231-1.293.357-1.987h1.938C485.816,242.793,485.7,243.449,485.575,244.123Zm4.243,9.982h-1.987c.116-.7.232-1.35.357-2.034h1.987C490.059,252.746,489.944,253.421,489.818,254.105Zm3.357-8h-1.91c.106-.627.212-1.254.338-1.929h-2.044c.125-.714.241-1.389.357-2.055h3.955C493.638,243.467,493.407,244.769,493.175,246.1Zm1.427-7.967h-1.958c-.126.694-.241,1.34-.356,2.035h-2.035c-.126.684-.232,1.311-.347,1.938-1.321,0-2.633.009-3.955.02.106-.656.212-1.312.318-1.958h2.006c.241-1.38.473-2.682.7-4.013h-3.955c.116-.647.232-1.283.347-1.929h1.91c.126-.723.242-1.379.357-2.064h-1.91c.116-.647.231-1.293.347-1.929h7.957c-.232,1.312-.463,2.614-.7,3.984h1.958C495.066,235.51,494.834,236.793,494.6,238.134Zm4.881,6h-1.949c-.115.685-.232,1.332-.338,1.968h-1.938c.473-2.691.935-5.343,1.408-8h1.978c-.232,1.331-.463,2.633-.7,4.012h1.9C499.715,242.773,499.6,243.429,499.483,244.133Zm2.372-2.034H499.85c.115-.627.222-1.254.337-1.91h2.006C502.087,240.806,501.981,241.423,501.855,242.1Zm.714-4h-3.916c.116-.665.222-1.293.338-1.9H497q.173-.984.347-1.967h5.9C503.023,235.52,502.8,236.793,502.569,238.1Zm9.375-7.909h-2c.116-.646.232-1.3.348-2h-1.958c.116-.666.231-1.3.347-1.939h3.954C512.407,227.554,512.185,228.855,511.944,230.186Zm6.327-2c-.115.675-.232,1.35-.356,2.025h-2.006c.126-.665.241-1.321.367-2.025Zm-3.626-2c.115-.665.232-1.331.357-2h1.939c-.116.655-.232,1.311-.357,2Zm4.108,21.923h-2.005c.231-1.3.463-2.6.694-3.955h2.006C519.226,245.464,519,246.775,518.753,248.116Zm7.2,3.907h-5.893c.347-1.949.694-3.9,1.041-5.884h5.883C526.633,248.116,526.286,250.055,525.949,252.023Zm4.321-1.958h-1.891c.232-1.3.463-2.6.7-3.955h1.881C530.733,247.422,530.5,248.724,530.27,250.065Zm-.541-7.967c-.115.694-.231,1.34-.357,2.025h-3.955c.116-.656.232-1.312.348-1.987h-3.974c-.115.646-.231,1.3-.356,2.006h-1.968c.116-.656.232-1.312.357-2.026h-3.974c.231-1.35.462-2.643.7-3.993h1.92c-.115.665-.241,1.341-.357,2.006h2.055c.126-.694.241-1.35.357-2.006h1.938c-.116.665-.241,1.341-.357,2.045h5.942c-.115.626-.221,1.253-.347,1.929Zm.106-11.854h2.026c-.126.647-.26,1.293-.386,1.939-.655.009-1.3.009-1.987.009C529.6,231.527,529.711,230.909,529.836,230.244Zm3.241,3.945h-1.939c.116-.655.231-1.321.357-1.987h1.929C533.308,232.867,533.192,233.514,533.077,234.189Z" transform="translate(-467.369 -196.352)"/>
            <path id="Path_168" data-name="Path 168" d="M527.568,273.063c.121-.682.236-1.336.357-2.028H525.91c.117-.66.227-1.285.336-1.9h-1.959c-.114.648-.221,1.26-.342,1.94h-3.992c-.117.666-.235,1.333-.351,1.992Z" transform="translate(-475.798 -207.363)"/>
            <path id="Path_169" data-name="Path 169" d="M534.422,269.113h.013l0-.014Z" transform="translate(-478.041 -207.358)"/>
            <path id="Path_170" data-name="Path 170" d="M544.271,264.046h-1.915c-.117.664-.225,1.276-.337,1.91h3.934c.236-1.341.466-2.645.7-3.948h-2.018C544.511,262.687,544.4,263.341,544.271,264.046Z" transform="translate(-479.19 -206.285)"/>
            <path id="Path_171" data-name="Path 171" d="M534.422,269.113l.015-.014h-.013Z" transform="translate(-478.041 -207.358)"/>
            <path id="Path_172" data-name="Path 172" d="M530.219,266.69l-.361,2.044h3.876q.187-1.022.373-2.044Z" transform="translate(-477.35 -206.994)"/>
            <path id="Path_173" data-name="Path 173" d="M534.864,266.688h.013l0-.014h-.013Z" transform="translate(-478.107 -206.991)"/>
            <path id="Path_174" data-name="Path 174" d="M530.27,266.674l0,.014h.013l0-.014Z" transform="translate(-477.412 -206.991)"/>
            <path id="Path_175" data-name="Path 175" d="M531.366,273.393h1.906c.122-.693.238-1.349.354-2.005H531.72C531.594,272.1,531.479,272.753,531.366,273.393Z" transform="translate(-477.578 -207.704)"/>
            <path id="Path_176" data-name="Path 176" d="M542.149,270.658h-2.092c.12-.676.229-1.3.338-1.916l.37-2.1H538.71l-.369,2.1h-3.963l-.331,1.916h4.007l-.356,2.019h6c.116-.665.227-1.293.347-1.969l.008-.05.345-1.955h-1.906C542.371,269.4,542.259,270.033,542.149,270.658Z" transform="translate(-477.984 -206.987)"/>
            <path id="Path_177" data-name="Path 177" d="M534.029,271.386h.013l0,0,0,0,0-.013h-.013Z" transform="translate(-477.981 -207.702)"/>
            <path id="Path_178" data-name="Path 178" d="M531.552,259.317h1.9l.335-1.9h-1.9C531.773,258.067,531.663,258.689,531.552,259.317Z" transform="translate(-477.606 -205.59)"/>
          </g>
        </g>
      </g>
      <path id="Path_179" data-name="Path 179" d="M0,0H301" transform="translate(293.32 350.63)" fill="none" stroke="#cfcfcf" stroke-linecap="round" stroke-width="1"/>
    </g>
  </g>
</svg>
