<svg xmlns="http://www.w3.org/2000/svg" width="39.997" height="39.997" viewBox="0 0 39.997 39.997"><defs><style>.a{fill:#edf2f8;}.b{fill:#d0332c;}.c{fill:#19212e;opacity:0.2;}.d{fill:#009b7f;}.e{fill:#6498e6;}.f{fill:#fff;}</style></defs><path class="a" d="M33.852,16H5.874A.875.875,0,0,0,5,16.874V38.732A1.748,1.748,0,0,0,6.749,40.48H32.978a1.748,1.748,0,0,0,1.749-1.749V16.874A.875.875,0,0,0,33.852,16Z" transform="translate(-1.503 -3.259)"/><path class="b" d="M30.456,1.483A.869.869,0,0,0,29.679,1H8.821a.869.869,0,0,0-.778.483S1,12.23,1,12.366c0,4.227,2.619,6.12,5.214,6.12a5.161,5.161,0,0,0,4.345-2.308,5.244,5.244,0,0,0,8.69,0,5.244,5.244,0,0,0,8.69,0,5.161,5.161,0,0,0,4.345,2.308c2.595,0,5.214-1.893,5.214-6.12C37.5,12.23,30.456,1.483,30.456,1.483Z" transform="translate(-1 -1)"/><path class="c" d="M6.214,20.12a5.161,5.161,0,0,0,4.345-2.308,5.244,5.244,0,0,0,8.69,0,5.244,5.244,0,0,0,8.69,0,5.161,5.161,0,0,0,4.345,2.308c2.595,0,5.214-1.893,5.214-6.12H1C1,18.227,3.619,20.12,6.214,20.12Z" transform="translate(-1 -2.758)"/><path class="d" d="M24.12,34H18.874a.875.875,0,0,0-.874.874v7.869h6.994V34.874A.875.875,0,0,0,24.12,34Z" transform="translate(-3.236 -5.521)"/><path class="e" d="M24.12,30.246H18.874A.875.875,0,0,1,18,29.372v-3.5A.875.875,0,0,1,18.874,25H24.12a.875.875,0,0,1,.874.874v3.5A.875.875,0,0,1,24.12,30.246Z" transform="translate(-3.236 -4.24)"/><path class="b" d="M36.869,24A7.868,7.868,0,0,0,29,31.869c0,4.694,5.958,10.752,7.5,12.245a.521.521,0,0,0,.727,0c1.548-1.493,7.506-7.551,7.506-12.245A7.868,7.868,0,0,0,36.869,24Z" transform="translate(-4.74 -4.264)"/><ellipse class="f" cx="2.857" cy="2.857" rx="2.857" ry="2.857" transform="translate(29.436 24.533)"/></svg>