<svg xmlns="http://www.w3.org/2000/svg" width="40.001" height="40.001" viewBox="0 0 40.001 40.001"><defs><style>.a{fill:#d0332c;}.b,.e{fill:#19212e;}.b{opacity:0.2;}.c{fill:#fff;}.d{fill:#009b7f;}.e{opacity:0.1;}</style></defs><path class="a" d="M41.852,15.073A36.388,36.388,0,0,0,17.6,11.481a.855.855,0,0,0-.684.714l-2.2,14.852A12.829,12.829,0,1,0,40.1,30.81l2.2-14.855A.855.855,0,0,0,41.852,15.073Z" transform="translate(-2.306 -1.759)"/><path class="b" d="M41.952,30.877l2.2-14.855a.855.855,0,0,0-.446-.881,36.631,36.631,0,0,0-11.815-3.9L27.383,41.689A12.843,12.843,0,0,0,41.952,30.877Z" transform="translate(-4.159 -1.826)"/><path class="c" d="M25.571,23.364l-2.538-.375a1.283,1.283,0,0,0-.375,2.538L25.2,25.9a1.283,1.283,0,0,0,.376-2.538Z" transform="translate(-3.224 -3.84)"/><path class="c" d="M37.49,25.134l-2.538-.376a1.283,1.283,0,1,0-.375,2.538l2.538.375a1.283,1.283,0,1,0,.376-2.538Z" transform="translate(-5.006 -4.069)"/><path class="c" d="M28.167,35.971a4.282,4.282,0,0,0-4.857,3.6.855.855,0,0,0,.721.971l6.768,1a.855.855,0,0,0,.972-.721A4.281,4.281,0,0,0,28.167,35.971Z" transform="translate(-3.496 -5.399)"/><path class="d" d="M24.709,1.7A36.383,36.383,0,0,0,.455,5.288a.855.855,0,0,0-.446.881l2.2,14.855A12.829,12.829,0,1,0,27.59,17.267L25.39,2.411a.855.855,0,0,0-.681-.713Z" transform="translate(0 -0.996)"/><path class="e" d="M26.723,1.709a36.662,36.662,0,0,0-12.376-.316L18.853,31.84A12.841,12.841,0,0,0,29.6,17.283L27.4,2.423A.855.855,0,0,0,26.723,1.709Z" transform="translate(-2.174 -0.999)"/><path class="c" d="M12.639,16.03a1.283,1.283,0,0,0-1.454-1.081l-2.538.375a1.283,1.283,0,1,0,.375,2.538l2.538-.376A1.283,1.283,0,0,0,12.639,16.03Z" transform="translate(-1.129 -2.8)"/><path class="c" d="M23.051,13.191l-2.538.376a1.283,1.283,0,1,0,.375,2.538l2.538-.376a1.283,1.283,0,0,0-.376-2.538Z" transform="translate(-2.904 -2.572)"/><path class="c" d="M20.692,25.575l-6.768,1a.855.855,0,0,0-.72.972A4.277,4.277,0,1,0,21.666,26.3a.855.855,0,0,0-.974-.72Z" transform="translate(-1.98 -4.145)"/></svg>